
<svg viewBox="0 0 1000 500" xmlns="http://www.w3.org/2000/svg">
  <!-- North America -->
  <path data-name="Kanada" d="M200 100 L235 85 L260 75 L290 80 L310 90 L330 85 L350 90 L370 85 L390 95 L380 110 L365 120 L350 135 L335 145 L320 140 L300 150 L280 140 L270 160 L240 170 L210 150 L190 140 L180 130 L200 100" />
  <path data-name="Sjedinjene Američke Države" d="M180 130 L210 150 L240 170 L250 190 L230 210 L210 215 L180 210 L150 200 L140 180 L150 160 L180 130" />
  <path data-name="Meksiko" d="M150 200 L180 210 L210 215 L205 230 L200 240 L180 250 L170 245 L160 240 L145 230 L140 220 L150 200" />
  <path data-name="Gvatemala" d="M180 250 L190 245 L195 250 L190 255 L185 255" />
  <path data-name="Belize" d="M185 245 L187 243 L189 245 L188 247 L187 247" />
  <path data-name="Salvador" d="M185 255 L190 253 L195 255 L190 257 L185 257" />
  <path data-name="Honduras" d="M190 245 L195 243 L200 245 L198 247 L195 250" />
  <path data-name="Nikaragva" d="M190 255 L195 250 L200 252 L198 255 L195 257" />
  <path data-name="Kostarika" d="M195 257 L200 255 L205 257 L202 259 L200 260" />
  <path data-name="Panama" d="M200 260 L205 257 L210 260 L208 262 L205 263" />
  
  <!-- South America -->
  <path data-name="Kolumbija" d="M205 263 L210 260 L215 265 L220 270 L218 280 L215 290 L210 292 L205 295 L200 290 L203 275" />
  <path data-name="Venecuela" d="M220 270 L235 265 L240 265 L245 270 L235 275 L225 280 L218 280 L220 270" />
  <path data-name="Gvajana" d="M245 270 L250 265 L255 270 L253 272 L250 275" />
  <path data-name="Surinam" d="M250 270 L255 265 L260 270 L258 273 L255 275" />
  <path data-name="Francuska Gvajana" d="M255 270 L260 265 L265 270 L262 273 L260 275" />
  <path data-name="Brazil" d="M225 280 L235 275 L245 270 L250 275 L260 275 L270 280 L280 285 L290 290 L295 300 L295 310 L290 320 L280 330 L270 333 L265 335 L260 334 L255 332 L250 330 L245 325 L240 320 L235 315 L230 310 L225 300" />
  <path data-name="Ekvador" d="M205 295 L210 292 L215 290 L218 292 L220 295 L215 298 L210 300" />
  <path data-name="Peru" d="M210 300 L215 298 L220 295 L230 300 L235 310 L240 320 L235 325 L230 320 L225 315 L220 315 L215 315" />
  <path data-name="Bolivija" d="M230 320 L235 325 L240 320 L245 325 L250 330 L245 335 L240 340 L235 335 L230 330" />
  <path data-name="Paragvaj" d="M250 330 L255 332 L260 334 L265 335 L263 340 L260 345 L255 343 L250 340 L245 340" />
  <path data-name="Urugvaj" d="M260 345 L263 340 L270 340 L275 345 L270 348 L265 350" />
  <path data-name="Argentina" d="M240 340 L245 340 L250 340 L255 343 L260 345 L265 350 L263 355 L260 360 L258 365 L260 370 L255 375 L250 380 L245 375 L240 370 L235 360 L235 350" />
  <path data-name="Čile" d="M235 350 L240 340 L235 335 L230 330 L225 340 L228 350 L230 360 L235 365 L240 370 L235 350" />
  
  <!-- Europe -->
  <path data-name="Srbija" d="M525 235 L528 232 L532 230 L538 232 L540 236 L543 240 L540 242 L535 243 L530 242 L528 240 Z" />
  <path data-name="Hrvatska" d="M510 230 L515 228 L520 230 L525 235 L527 240 L523 242 L518 244 L515 245 L510 242 L505 238 Z" />
  <path data-name="Bosna i Hercegovina" d="M515 245 L518 244 L523 242 L527 240 L530 242 L535 243 L533 246 L530 250 L525 251 L522 252 L518 249 Z" />
  <path data-name="Crna Gora" d="M530 250 L533 246 L535 243 L540 242 L543 240 L545 242 L546 245 L543 247 L540 249 L538 250 Z" />
  <path data-name="Bugarska" d="M545 235 L548 233 L550 233 L553 234 L557 235 L560 236 L562 240 L561 244 L560 248 L556 247 L553 245 L550 245 Z" />
  <path data-name="Severna Makedonija" d="M538 250 L540 249 L543 247 L546 245 L548 248 L550 249 L550 253 L547 254 L543 254 L540 253 Z" />
  <path data-name="Kosovo" d="M535 243 L537 241 L540 242 L542 241 L543 240 L542 242 L541 243 L540 244 L538 244 Z" />
  <path data-name="Albanija" d="M530 253 L533 251 L536 250 L538 250 L540 253 L539 255 L537 256 L535 257 L533 255 Z" />
  <path data-name="Grčka" d="M540 253 L543 254 L547 254 L550 253 L553 255 L556 258 L558 262 L558 265 L554 268 L548 269 L543 269 L540 270 L538 266 L537 262 L535 257 L537 256 L539 255 Z" />
  <path data-name="Rumunija" d="M538 232 L542 230 L545 227 L548 225 L550 224 L553 224 L556 223 L559 224 L560 228 L558 231 L555 233 L550 233 L548 233 L545 235 Z" />
  <path data-name="Mađarska" d="M520 225 L523 223 L526 222 L529 221 L532 220 L535 222 L537 224 L538 232 L535 231 L532 230 L528 232 L525 235 Z" />
  <path data-name="Austrija" d="M505 220 L508 218 L511 217 L514 216 L516 214 L519 213 L522 213 L525 214 L528 216 L530 218 L532 220 L529 221 L526 222 L523 223 L520 225 L518 224 L515 223 L512 222 L509 221 L506 221 Z" />
  <path data-name="Slovenija" d="M505 220 L506 221 L509 221 L510 225 L510 230 L508 234 L505 238 L502 234 L500 230 L502 225 L504 222 Z" />
  <path data-name="Italija" d="M485 240 L490 235 L495 230 L500 230 L505 238 L503 242 L499 245 L495 248 L491 245 L486 243 Z M460 220 L465 215 L470 210 L475 205 L480 204 L485 210 L487 215 L489 220 L490 225 L488 230 L485 235 L480 238 L475 235 L470 232 L465 235 Z" />
  <path data-name="San Marino" d="M486 234 L487 232 L489 233 L488 235 Z" />
  <path data-name="Vatikan" d="M484 240 L485 238 L487 239 L486 241 Z" />
  <path data-name="Švajcarska" d="M490 210 L493 207 L495 205 L498 206 L500 207 L501 210 L500 213 L500 215 L498 217 L495 217 L492 215 Z" />
  <path data-name="Lihtenštajn" d="M497 212 L498 210 L499 211 L498 213 Z" />
  <path data-name="Francuska" d="M460 220 L465 215 L470 210 L475 205 L480 204 L485 210 L488 208 L490 210 L492 215 L489 220 L487 215 L485 210 L480 204 L475 205 L470 210 L465 215 L460 220 Z M430 230 L440 225 L445 222 L450 223 L455 225 L460 220 L465 225 L470 230 L475 235 L470 232 L465 235 L460 233 L455 232 L450 225 Z" />
  <path data-name="Monako" d="M480 223 L481 221 L483 222 L482 224 Z" />
  <path data-name="Španija" d="M450 225 L455 232 L460 233 L465 235 L465 240 L460 245 L455 247 L450 248 L445 248 L440 247 L435 246 L430 245 L425 245 L430 240 L430 235 L430 230 L440 225 L445 222 L450 223 L455 225 Z" />
  <path data-name="Andora" d="M455 230 L456 228 L458 229 L457 231 Z" />
  <path data-name="Portugal" d="M425 245 L430 245 L435 246 L430 248 L425 250 L420 248 L415 245 L415 240 L420 235 L425 240 Z" />
  <path data-name="Gibraltar" d="M430 250 L431 249 L432 250 L431 251 Z" />
  <path data-name="Nemačka" d="M500 207 L505 205 L510 200 L515 195 L517 192 L520 190 L522 188 L525 185 L520 187 L515 190 L510 191 L505 190 L500 189 L498 193 L497 197 L496 201 L495 205 L498 206 Z M505 215 L510 210 L515 205 L520 200 L522 198 L525 195 L520 196 L515 195 L510 200 L505 205 L500 207 L498 206 L501 210 L505 215 Z" />
  <path data-name="Belgija" d="M485 200 L488 198 L490 195 L493 196 L495 197 L494 202 L490 205 Z" />
  <path data-name="Luksemburg" d="M492 201 L493 199 L495 200 L494 202 Z" />
  <path data-name="Holandija" d="M490 190 L493 187 L495 185 L498 186 L500 186 L499 189 L497 193 L494 192 L492 192 Z" />
  <path data-name="Češka" d="M515 195 L518 196 L520 197 L522 198 L520 200 L515 205 L510 210 L505 215 L501 210 L500 207 L505 205 L510 200 L515 195 Z" />
  <path data-name="Slovačka" d="M525 220 L528 216 L530 218 L532 220 L530 210 L528 208 L525 207 L520 207 L522 198 L520 200 L515 205 L510 210 L515 215 L520 218 L525 220 Z" />
  <path data-name="Poljska" d="M515 195 L518 196 L520 197 L522 198 L525 195 L530 190 L535 185 L530 183 L525 185 L520 187 L515 190 Z" />
  <path data-name="Danska" d="M495 175 L497 172 L500 170 L502 172 L505 171 L503 174 L500 177 L498 180 L495 178 Z" />
  <path data-name="Švedska" d="M505 155 L507 152 L510 150 L512 145 L515 150 L517 155 L517 160 L517 165 L517 170 L515 172 L512 173 L510 172 L508 171 L505 171 Z" />
  <path data-name="Norveška" d="M490 150 L495 145 L500 140 L505 135 L510 138 L510 145 L512 145 L510 150 L507 152 L505 155 L503 158 L500 160 L495 160 Z" />
  <path data-name="Finska" d="M525 130 L530 132 L535 135 L538 138 L540 145 L538 148 L535 150 L530 155 L525 153 L520 150 Z" />
  <path data-name="Rusija" d="M540 145 L545 142 L550 138 L555 135 L560 130 L565 125 L570 115 L580 110 L590 112 L600 115 L610 120 L620 125 L630 125 L640 120 L650 118 L660 115 L670 115 L680 115 L690 115 L700 120 L710 135 L715 150 L715 160 L715 170 L715 180 L715 190 L715 200 L715 210 L710 215 L700 220 L690 222 L680 223 L670 224 L660 225 L650 225 L640 224 L630 223 L620 222 L610 220 L600 215 L590 213 L580 215 L570 217 L560 228 L556 223 L553 224 L550 224 L548 225 L545 227 L542 230 L538 232 L537 224 L535 222 L532 220 L530 218 L528 216 L525 220 L520 218 L515 215 L510 210 L505 215 L501 210 L500 207 L505 205 L510 200 L515 195 L517 192 L520 190 L522 188 L525 185 L530 183 L535 185 L535 180 L535 175 L535 170 L530 165 L525 160 L520 155 L520 150 L525 153 L530 155 L535 150 L538 148 L540 145 Z" />
  <path data-name="Estonija" d="M535 155 L538 153 L540 150 L543 152 L545 153 L544 155 L541 157 L538 158 L535 157 Z" />
  <path data-name="Letonija" d="M535 160 L538 158 L541 157 L544 157 L545 159 L543 161 L540 163 L537 162 L535 161 Z" />
  <path data-name="Litvanija" d="M532 165 L535 163 L538 162 L540 163 L543 165 L543 167 L540 169 L537 170 L535 170 L532 168 Z" />
  <path data-name="Belorusija" d="M535 170 L537 168 L540 169 L543 167 L545 168 L550 170 L555 175 L553 180 L550 183 L548 185 L545 187 L540 186 L535 185 L535 180 L535 175 Z" />
  <path data-name="Ukrajina" d="M550 185 L553 180 L555 175 L558 173 L563 172 L568 173 L573 175 L578 178 L580 185 L580 190 L580 195 L580 200 L580 205 L580 210 L580 215 L570 217 L560 228 L559 224 L558 220 L556 223 L553 224 L550 224 L548 225 L545 227 L542 230 L538 232 L535 231 L532 230 L530 228 L528 226 L525 225 L523 223 L520 225 L518 224 L515 223 L512 222 L509 221 L506 221 L505 220 L505 215 L510 210 L515 205 L520 200 L522 198 L525 195 L525 190 L530 185 L535 185 L540 186 L545 187 L548 185 L550 183 Z" />
  <path data-name="Moldavija" d="M555 223 L556 220 L559 224 L560 228 L558 231 L555 233 L553 230 Z" />
  <path data-name="Velika Britanija" d="M470 180 L473 177 L477 175 L480 172 L483 170 L485 165 L488 168 L490 170 L488 173 L486 175 L485 178 L483 180 L480 183 L478 185 L475 190 L472 188 Z" />
  <path data-name="Irska" d="M465 175 L467 173 L470 172 L473 172 L475 175 L474 178 L472 180 L470 180 L467 178 Z" />
  <path data-name="Island" d="M450 135 L453 133 L456 132 L460 130 L463 132 L467 133 L470 135 L467 137 L464 138 L460 140 L456 141 L453 140 L450 137 Z" />
  
  <!-- Asia -->
  <path data-name="Turska" d="M560 236 L563 233 L567 232 L570 232 L573 233 L577 235 L580 215 L585 215 L590 213 L595 215 L600 220 L605 223 L610 230 L605 235 L600 238 L595 240 L590 245 L585 243 L580 241 L575 240 L570 238 Z" />
  <path data-name="Gruzija" d="M600 220 L603 218 L607 216 L610 215 L613 216 L615 217 L613 219 L610 220 L608 222 Z" />
  <path data-name="Jermenija" d="M610 222 L613 219 L615 217 L617 218 L618 219 L617 221 L615 223 L613 222 Z" />
  <path data-name="Azerbejdžan" d="M615 217 L618 215 L620 213 L623 212 L625 212 L628 213 L630 215 L627 217 L623 218 L620 218 L618 219 Z" />
  <path data-name="Iran" d="M618 219 L620 218 L623 218 L625 217 L627 217 L630 215 L633 218 L636 222 L640 225 L643 230 L647 235 L650 240 L647 243 L643 245 L639 247 L635 248 L630 250 L625 250 L620 248 L615 245 L610 240 L605 235 L610 230 Z" />
  <path data-name="Irak" d="M610 230 L615 245 L610 248 L605 250 L600 252 L595 248 L590 245 Z" />
  <path data-name="Sirija" d="M590 245 L595 242 L600 238 L605 235 L610 230 L605 250 L600 252 L595 248 Z" />
  <path data-name="Liban" d="M585 250 L587 248 L588 245 L590 245 L593 246 L592 248 L589 250 L587 250 Z" />
  <path data-name="Izrael" d="M587 250 L589 250 L590 248 L592 251 L591 253 L589 253 L587 252 Z" />
  <path data-name="Palestina" d="M589 251 L591 249 L593 252 L591 254 L589 253 Z" />
  <path data-name="Jordan" d="M592 251 L595 248 L600 252 L600 255 L603 258 L600 260 L597 258 L594 256 L591 254 L589 253 Z" />
  <path data-name="Saudijska Arabija" d="M600 260 L603 258 L605 255 L607 252 L610 248 L615 245 L620 248 L625 250 L630 252 L635 255 L638 258 L640 262 L640 270 L637 275 L634 280 L630 283 L625 285 L620 287 L615 290 L610 285 L605 280 L600 275 L595 272 L590 270 Z" />
  <path data-name="Kuvajt" d="M625 250 L627 248 L629 249 L630 250 L629 251 L627 252 Z" />
  <path data-name="Bahrein" d="M630 260 L631 259 L632 260 L631 261 Z" />
  <path data-name="Katar" d="M635 265 L636 263 L638 264 L638 265 L637 266 Z" />
  <path data-name="Ujedinjeni Arapski Emirati" d="M640 270 L642 268 L644 270 L646 270 L648 270 L646 272 L643 272 L641 271 Z" />
  <path data-name="Oman" d="M645 270 L648 268 L650 265 L652 267 L654 269 L655 270 L653 272 L651 273 L650 275 L648 273 L646 272 Z" />
  <path data-name="Jemen" d="M625 280 L628 282 L630 283 L634 280 L637 275 L640 270 L643 272 L646 272 L648 273 L650 275 L645 278 L640 280 L635 285 L630 283 Z" />
  <path data-name="Kazahstan" d="M600 210 L610 220 L620 222 L630 223 L640 224 L650 225 L655 222 L660 220 L662 215 L665 210 L660 205 L655 198 L650 195 L645 190 L640 185 L635 182 L630 180 L625 180 L620 185 L615 190 L610 195 L605 200 L600 205 Z" />
  <path data-name="Uzbekistan" d="M650 225 L655 222 L660 220 L665 218 L670 220 L673 218 L675 205 L670 202 L665 200 L660 200 L655 198 L650 195 L647 200 L645 205 L647 210 L648 215 L650 220 Z" />
  <path data-name="Turkmenistan" d="M650 225 L648 215 L647 210 L645 205 L647 200 L650 195 L655 198 L660 200 L665 200 L670 202 L675 205 L672 210 L670 215 L668 220 L665 225 L663 228 L660 230 L655 233 L650 240 L645 235 L640 230 L636 222 L633 218 L630 215 L628 213 L625 212 L623 212 L620 213 L618 215 L615 217 L610 215 L605 216 L600 220 L610 220 Z" />
  <path data-name="Kirgistan" d="M660 200 L665 198 L670 197 L675 195 L677 195 L680 193 L685 190 L690 195 L688 197 L685 198 L680 200 L675 205 L673 203 L670 202 L665 200 Z" />
  <path data-name="Tadžikistan" d="M675 205 L680 200 L685 198 L688 197 L690 195 L693 197 L695 200 L693 203 L690 205 L688 207 L685 208 L682 209 L680 210 Z" />
  <path data-name="Avganistan" d="M665 225 L668 220 L670 215 L672 210 L675 205 L680 210 L682 209 L685 208 L688 207 L690 205 L693 207 L695 210 L695 215 L693 220 L690 225 L688 230 L685 233 L682 237 L680 238 L675 240 L673 238 L670 235 L668 230 Z" />
  <path data-name="Pakistan" d="M675 240 L680 238 L682 237 L685 233 L688 230 L690 235 L695 237 L698 240 L700 243 L703 247 L705 250 L708 253 L710 255 L705 257 L700 258 L695 259 L690 260 L685 260 L680 258 L675 255 L670 250 L670 245 L665 245 Z" />
  <path data-name="Indija" d="M710 255 L715 250 L720 245 L725 240 L730 235 L735 230 L740 230 L743 235 L745 240 L747 245 L745 250 L745 255 L745 260 L743 265 L740 270 L737 275 L733 278 L730 280 L725 278 L720 275 L715 272 L710 270 L705 268 L700 265 L695 262 L690 260 L695 259 L700 258 L705 257 Z" />
  <path data-name="Nepal" d="M710 240 L713 238 L715 237 L718 236 L720 235 L723 236 L725 238 L723 240 L720 242 L717 243 L715 243 Z" />
  <path data-name="Butan" d="M730 242 L733 240 L735 238 L737 239 L740 241 L738 243 L736 244 L734 245 L732 244 Z" />
  <path data-name="Bangladeš" d="M735 250 L737 248 L739 246 L740 245 L743 246 L745 248 L744 250 L742 252 L740 253 L738 252 Z" />
  <path data-name="Mjanmar" d="M745 248 L748 246 L750 244 L752 242 L755 240 L758 242 L760 244 L762 247 L760 250 L758 252 L755 255 L752 257 L750 260 L747 258 L745 255 L745 250 Z" />
  <path data-name="Kina" d="M715 210 L720 205 L725 200 L730 195 L735 190 L740 185 L745 180 L750 170 L753 165 L757 160 L760 155 L715 160 L725 150 L735 148 L745 147 L750 150 L760 155 L770 160 L775 165 L780 170 L785 175 L790 180 L795 185 L798 190 L800 195 L798 200 L795 205 L793 210 L795 215 L795 220 L790 225 L785 230 L780 235 L775 237 L770 237 L765 235 L760 235 L755 240 L752 242 L750 244 L748 246 L745 248 L743 246 L740 245 L739 246 L737 248 L735 250 L740 245 L736 244 L734 245 L732 244 L730 242 L728 240 L725 238 L723 240 L720 242 L717 243 L715 243 L710 240 L712 235 L710 230 L710 225 L708 222 L705 220 L700 218 L695 215 L693 207 L690 205 L693 203 L695 200 L693 197 L690 195 L688 191 L685 190 L680 193 L677 195 L675 195 L670 197 L665 198 L660 200 L655 198 L650 195 L645 190 L640 185 L635 182 L630 180 L625 180 L620 185 L615 190 L610 195 L605 200 L600 205 L600 210 L605 216 L610 215 L613 216 L615 217 L618 215 L620 213 L623 212 L625 212 L628 213 L630 215 L633 218 L636 222 L640 225 L645 225 L650 225 L660 225 L670 224 L680 223 L690 222 L700 220 L710 215 Z" />
  <path data-name="Mongolija" d="M715 160 L720 158 L725 157 L730 155 L735 153 L740 152 L745 150 L750 150 L755 153 L760 155 L765 156 L770 155 L775 153 L780 155 L778 158 L775 160 L770 163 L765 165 L760 168 L755 170 L750 170 L745 168 L740 167 L735 165 L730 163 L725 162 L720 161 Z" />
  <path data-name="Severna Koreja" d="M795 220 L797 218 L799 216 L801 215 L803 216 L805 218 L804 220 L802 222 L800 223 Z" />
  <path data-name="Južna Koreja" d="M800 223 L802 222 L804 220 L806 220 L808 222 L808 224 L807 226 L805 227 L803 227 Z" />
  <path data-name="Japan" d="M815 210 L818 208 L820 205 L823 203 L825 200 L828 202 L830 205 L828 208 L825 210 L823 212 L820 215 L818 213 Z" />
  <path data-name="Tajland" d="M755 275 L757 273 L759 271 L760 270 L763 271 L765 272 L767 273 L766 275 L764 277 L762 278 L760 277 L758 276 Z" />
  <path data-name="Laos" d="M760 270 L763 268 L765 265 L767 266 L770 268 L772 268 L770 270 L768 272 L765 273 L763 271 Z" />
  <path data-name="Vijetnam" d="M765 265 L767 263 L770 260 L772 262 L775 263 L777 263 L776 265 L774 267 L772 268 L770 268 L767 266 Z" />
  <path data-name="Kambodža" d="M760 275 L762 273 L764 272 L766 272 L767 273 L769 274 L772 275 L770 276 L767 278 L765 278 L763 277 Z" />
  <path data-name="Malezija" d="M760 283 L762 282 L765 280 L768 281 L770 282 L768 284 L766 285 L763 285 L761 284 Z" />
  <path data-name="Singapur" d="M765 287 L766 286 L767 287 L766 288 Z" />
  <path data-name="Brunej" d="M775 280 L776 279 L777 280 L776 281 Z" />
  <path data-name="Indonezija" d="M770 290 L773 288 L776 287 L780 286 L785 285 L790 286 L795 288 L795 290 L792 292 L787 293 L783 294 L780 295 L777 294 L774 292 Z" />
  <path data-name="Istočni Timor" d="M790 293 L792 292 L794 293 L792 294 Z" />
  <path data-name="Papua Nova Gvineja" d="M810 290 L813 288 L816 286 L820 285 L822 287 L825 290 L823 292 L820 293 L817 294 L815 295 L812 293 Z" />
  <path data-name="Filipini" d="M800 250 L802 248 L805 245 L807 247 L810 250 L808 252 L805 255 L803 253 Z" />
  
  <!-- Africa -->
  <path data-name="Egipat" d="M558 265 L560 263 L563 262 L568 260 L573 260 L575 263 L575 265 L575 270 L572 275 L568 280 L565 280 L562 277 L560 274 L558 270 Z" />
  <path data-name="Libija" d="M525 280 L530 277 L536 275 L542 273 L548 270 L555 268 L562 265 L565 270 L568 275 L570 280 L570 285 L570 290 L570 295 L570 300 L570 305 L565 307 L560 308 L553 307 L547 305 L540 305 L535 304 L530 305 Z" />
  <path data-name="Tunis" d="M490 265 L493 263 L496 262 L500 260 L502 262 L504 264 L505 265 L502 267 L498 269 L495 270 Z" />
  <path data-name="Alžir" d="M470 285 L475 283 L480 280 L485 277 L490 273 L495 270 L500 275 L505 280 L510 285 L515 290 L520 295 L525 300 L530 305 L523 307 L517 310 L510 312 L503 314 L498 315 L492 315 L485 313 L480 310 L475 305 L470 300 L465 295 L470 290 Z" />
  <path data-name="Maroko" d="M450 280 L454 278 L458 275 L462 273 L467 272 L470 270 L473 273 L475 277 L477 280 L480 283 L477 288 L474 292 L470 295 L466 298 L462 297 L458 295 L454 292 L452 290 L450 285 Z" />
  <path data-name="Zapadna Sahara" d="M430 290 L434 288 L438 285 L442 283 L445 281 L450 280 L453 283 L455 287 L458 290 L460 295 L456 297 L452 300 L448 300 L444 300 L440 300 L435 298 L432 295 Z" />
  <path data-name="Mauritanija" d="M430 300 L435 298 L440 300 L444 300 L448 300 L452 300 L456 297 L460 295 L457 300 L455 305 L452 308 L447 310 L442 310 L438 308 L434 305 L430 303 Z" />
  <path data-name="Mali" d="M460 295 L465 293 L470 290 L473 293 L477 296 L480 300 L483 305 L485 310 L485 315 L482 317 L478 318 L474 319 L470 320 L467 319 L465 318 L464 316 L462 313 L460 310 L458 307 L456 303 L455 300 Z" />
  <path data-name="Niger" d="M480 315 L485 313 L490 312 L495 312 L498 315 L503 320 L507 323 L512 325 L518 327 L525 330 L520 331 L515 332 L510 333 L505 333 L500 332 L495 330 L490 325 L485 320 Z" />
  <path data-name="Nigerija" d="M485 325 L489 323 L494 322 L495 325 L497 328 L500 330 L500 335 L500 340 L499 342 L497 343 L494 345 L490 345 L488 342 L486 339 L485 335 L484 330 Z" />
  <path data-name="Čad" d="M530 305 L535 304 L540 305 L547 305 L553 307 L560 308 L565 307 L570 305 L568 310 L566 315 L564 320 L563 325 L560 327 L557 326 L555 325 L550 325 L545 323 L540 322 L535 320 L532 317 L530 313 L530 310 Z" />
  <path data-name="Sudan" d="M570 305 L572 300 L575 295 L577 290 L580 285 L583 282 L586 280 L590 290 L595 295 L598 298 L600 300 L602 304 L603 307 L605 300 L602 310 L600 315 L598 320 L595 325 L590 330 L587 332 L585 330 L581 329 L577 328 L573 327 L570 327 L567 326 L565 325 Z" />
  <path data-name="Južni Sudan" d="M565 325 L568 325 L572 325 L575 327 L577 328 L581 329 L585 330 L583 334 L581 336 L583 340 L580 338 L577 337 L573 336 L570 335 L568 333 L565 330 L563 327 Z" />
  <path data-name="Eritreja" d="M590 290 L592 288 L594 286 L595 285 L598 286 L600 288 L599 290 L597 292 L595 293 Z" />
  <path data-name="Džibuti" d="M595 293 L597 292 L599 290 L601 291 L603 290 L605 292 L603 293 L601 294 L599 294 L598 295 Z" />
  <path data-name="Etiopija" d="M585 330 L590 325 L593 322 L595 320 L598 318 L600 315 L602 310 L605 313 L608 315 L610 317 L612 320 L615 322 L613 327 L610 330 L607 333 L603 335 L600 335 Z" />
  <path data-name="Somalija" d="M615 305 L618 303 L620 301 L623 300 L625 300 L627 303 L630 307 L630 310 L627 312 L624 314 L620 315 L618 313 L616 310 L615 308 Z" />
  <path data-name="Kenija" d="M585 340 L588 338 L590 335 L593 333 L595 330 L598 332 L600 335 L602 337 L604 340 L605 345 L603 348 L600 350 L597 350 L594 348 L591 350 L588 348 L586 345 L585 343 Z" />
  <path data-name="Uganda" d="M570 335 L573 335 L576 336 L578 337 L580 338 L583 340 L583 343 L585 345 L585 350 L583 348 L580 347 L577 346 L575 344 L573 343 L572 345 Z" />
  <path data-name="Ruanda" d="M570 345 L571 343 L572 342 L573 343 L574 345 L573 346 L571 347 Z" />
  <path data-name="Burundi" d="M570 348 L571 347 L572 346 L574 347 L574 348 L573 349 L572 350 Z" />
  <path data-name="Tanzanija" d="M585 350 L587 348 L590 347 L593 347 L595 349 L597 350 L600 350 L602 352 L604 355 L605 360 L603 362 L600 363 L597 364 L593 365 L590 365 L588 363 L586 360 L585 356 L584 353 Z" />
  <path data-name="Demokratska Republika Kongo" d="M550 360 L553 358 L556 355 L560 353 L563 350 L567 348 L570 350 L573 353 L576 355 L580 357 L583 360 L587 362 L590 365 L587 367 L585 370 L582 373 L578 375 L575 377 L570 380 L565 380 L560 378 L555 377 L550 375 L548 372 L545 370 L548 367 L549 364 Z" />
  <path data-name="Republika Kongo" d="M535 350 L537 348 L540 346 L543 345 L546 343 L550 345 L554 348 L555 350 L554 352 L552 354 L550 355 L548 357 L546 358 L544 360 L541 360 L538 358 Z" />
  <path data-name="Gabon" d="M520 355 L523 353 L525 352 L528 351 L530 350 L532 352 L535 350 L537 353 L538 355 L537 358 L535 360 L532 363 L530 365 L527 365 L525 364 L523 363 L522 360 L520 357 Z" />
  <path data-name="Ekvatorijalna Gvineja" d="M520 355 L521 354 L522 353 L523 354 L524 355 L523 356 L522 357 Z" />
  <path data-name="Centralnoafrička Republika" d="M550 345 L553 343 L555 342 L558 340 L562 339 L565 337 L567 335 L570 335 L572 340 L573 345 L572 350 L570 353 L567 355 L563 356 L560 353 L556 355 L553 353 L552 350 Z" />
  <path data-name="Kamerun" d="M515 340 L518 338 L520 335 L523 333 L526 332 L528 333 L530 335 L532 338 L535 350 L532 352 L530 350 L528 351 L525 352 L523 353 L520 355 L517 352 L515 348 L513 345 Z" />
  <path data-name="Benin" d="M490 340 L492 337 L494 336 L496 337 L497 338 L496 340 L495 343 Z" />
  <path data-name="Togo" d="M490 338 L491 336 L492 335 L493 336 L494 337 L493 339 L492 338 Z" />
  <path data-name="Gana" d="M485 335 L487 334 L488 333 L490 333 L492 334 L493 335 L492 337 L490 338 L488 337 Z" />
  <path data-name="Obala Slonovače" d="M475 335 L478 334 L480 333 L483 334 L485 335 L487 338 L488 342 L486 342 L483 343 L480 343 L478 342 L476 340 Z" />
  <path data-name="Burkina Faso" d="M475 335 L478 332 L480 330 L483 329 L485 328 L487 330 L490 333 L488 333 L487 334 L485 335 L483 334 L480 333 Z" />
  <path data-name="Liberija" d="M465 340 L466 338 L468 337 L470 338 L471 339 L470 341 L468 342 L466 341 Z" />
  <path data-name="Sijera Leone" d="M460 338 L462 337 L464 336 L465 336 L467 337 L468 338 L467 340 L464 339 L462 339 Z" />
  <path data-name="Gvineja" d="M455 335 L458 333 L460 333 L462 334 L465 336 L464 336 L462 337 L460 338 L458 339 L456 338 Z" />
  <path data-name="Gvineja Bisao" d="M455 335 L456 334 L457 333 L458 334 L459 335 L458 336 L457 337 L456 336 Z" />
  <path data-name="Senegal" d="M450 335 L452 334 L454 333 L455 333 L456 334 L457 335 L456 336 L454 337 L452 337 L451 336 Z" />
  <path data-name="Gambija" d="M450 335 L451 334 L452 334 L453 335 L452 336 Z" />
  <path data-name="Zambija" d="M570 375 L573 372 L577 370 L580 372 L582 375 L585 380 L587 385 L590 390 L590 395 L588 397 L583 395 L580 393 L577 390 L575 387 L574 382 L573 378 L571 376 Z" />
  <path data-name="Malavi" d="M588 385 L589 383 L590 380 L593 383 L594 385 L593 387 L591 388 L589 387 Z" />
  <path data-name="Mozambik" d="M590 395 L593 393 L596 392 L599 390 L602 390 L604 393 L607 395 L610 397 L610 400 L610 405 L608 407 L605 408 L602 410 L598 410 L595 410 L593 407 L592 403 Z" />
  <path data-name="Zimbabve" d="M575 390 L577 390 L580 393 L583 395 L587 393 L590 395 L592 398 L594 400 L593 402 L589 400 L585 399 L582 398 L580 395 Z" />
  <path data-name="Bocvana" d="M565 400 L568 398 L571 396 L575 395 L578 396 L580 397 L583 400 L585 405 L583 407 L580 408 L577 410 L573 410 L570 410 Z" />
  <path data-name="Namibija" d="M550 400 L555 398 L560 400 L565 400 L568 402 L570 405 L570 410 L567 408 L563 407 L560 405 L557 408 L555 410 L552 408 L550 406 L548 403 Z" />
  <path data-name="Angola" d="M550 380 L553 378 L557 377 L560 378 L563 379 L567 380 L570 382 L573 385 L575 390 L570 393 L565 395 L560 396 L557 398 L555 395 L553 390 L550 385 Z" />
  <path data-name="Južnoafrička Republika" d="M560 410 L564 408 L567 408 L570 410 L573 410 L577 410 L580 408 L583 407 L585 405 L587 408 L590 410 L593 412 L595 415 L593 417 L590 418 L585 420 L580 418 L575 417 L570 420 L565 418 L562 415 Z" />
  <path data-name="Svazilend" d="M580 412 L581 411 L582 410 L583 411 L584 412 L583 413 L582 414 L581 413 Z" />
  <path data-name="Lesoto" d="M575 415 L577 414 L578 413 L579 414 L580 415 L578 416 L577 417 L576 416 Z" />
  
  <!-- Australija i Okeanija -->
  <path data-name="Australija" d="M775 355 L780 353 L785 350 L790 347 L795 345 L800 342 L805 340 L810 340 L815 343 L820 347 L825 350 L828 355 L830 360 L830 365 L828 370 L825 375 L820 380 L815 383 L810 387 L807 390 L803 387 L798 385 L793 382 L788 380 L783 378 L778 377 L775 380 L772 375 L770 370 L772 365 L773 360 Z" />
  <path data-name="Novi Zeland" d="M840 395 L843 393 L846 392 L850 390 L853 393 L855 395 L852 397 L849 399 L845 400 L842 398 Z" />
  <path data-name="Fidži" d="M870 340 L871 339 L872 338 L873 339 L874 340 L873 341 L872 342 L871 341 Z" />
  <path data-name="Samoa" d="M880 335 L881 334 L882 333 L883 334 L884 335 L883 336 L882 337 L881 336 Z" />
  <path data-name="Tonga" d="M885 345 L886 344 L887 343 L888 344 L889 345 L888 346 L887 347 L886 346 Z" />
  <path data-name="Vanuatu" d="M865 345 L866 344 L867 343 L868 344 L869 345 L868 346 L867 347 L866 346 Z" />
  <path data-name="Solomonski Ostrva" d="M855 325 L856 324 L857 323 L858 324 L859 325 L858 326 L857 327 L856 326 Z" />
</svg>
