
<?xml version="1.0" encoding="UTF-8" standalone="no"?>
<svg xmlns="http://www.w3.org/2000/svg" viewBox="0 0 1000 500">
  <!-- North America -->
  <path data-name="Kanada" d="M 106.42,39.9 L 113.42,38.9 L 119.42,40.9 L 124.42,39.9 L 128.42,36.9 L 134.42,38.9 L 138.42,37.9 L 143.42,39.9 L 146.42,41.9 L 151.42,38.9 L 156.42,36.9 L 162.42,37.9 L 167.42,42.9 L 172.42,41.9 L 177.42,40.9 L 183.42,42.9 L 189.42,45.9 L 187.42,49.9 L 190.42,54.9 L 187.42,58.9 L 183.42,60.9 L 178.42,62.9 L 175.42,66.9 L 171.42,70.9 L 168.42,74.9 L 163.42,76.9 L 159.42,74.9 L 155.42,71.9 L 152.42,67.9 L 147.42,65.9 L 142.42,65.9 L 137.42,67.9 L 133.42,70.9 L 129.42,74.9 L 126.42,78.9 L 124.42,83.9 L 121.42,85.9 L 117.42,83.9 L 113.42,80.9 L 110.42,76.9 L 108.42,72.9 L 106.42,68.9 L 104.42,63.9 L 103.42,59.9 L 102.42,55.9 L 101.42,50.9 L 102.42,46.9 L 104.42,43.9 L 106.42,39.9 Z" />
  <path data-name="Sjedinjene Američke Države" d="M 103.42,59.9 L 126.42,78.9 L 124.42,83.9 L 129.42,88.9 L 134.42,92.9 L 139.42,96.9 L 143.42,99.9 L 148.42,103.9 L 152.42,108.9 L 156.42,112.9 L 159.42,118.9 L 156.42,123.9 L 152.42,126.9 L 147.42,129.9 L 142.42,132.9 L 137.42,134.9 L 132.42,135.9 L 127.42,134.9 L 123.42,132.9 L 119.42,129.9 L 116.42,126.9 L 112.42,123.9 L 108.42,121.9 L 104.42,119.9 L 99.42,117.9 L 95.42,114.9 L 91.42,111.9 L 88.42,108.9 L 85.42,104.9 L 83.42,100.9 L 82.42,95.9 L 83.42,91.9 L 85.42,87.9 L 87.42,84.9 L 90.42,80.9 L 94.42,77.9 L 97.42,74.9 L 100.42,70.9 L 102.42,64.9 L 103.42,59.9 Z" />
  <path data-name="Meksiko" d="M 91.42,111.9 L 95.42,114.9 L 99.42,117.9 L 104.42,119.9 L 108.42,121.9 L 112.42,123.9 L 116.42,126.9 L 119.42,129.9 L 123.42,132.9 L 127.42,134.9 L 132.42,135.9 L 134.42,140.9 L 135.42,145.9 L 135.42,150.9 L 134.42,155.9 L 132.42,160.9 L 129.42,164.9 L 126.42,168.9 L 123.42,172.9 L 119.42,176.9 L 116.42,180.9 L 112.42,184.9 L 108.42,187.9 L 104.42,190.9 L 100.42,193.9 L 96.42,196.9 L 92.42,198.9 L 89.42,194.9 L 86.42,190.9 L 84.42,186.9 L 82.42,182.9 L 80.42,178.9 L 79.42,174.9 L 78.42,170.9 L 78.42,166.9 L 77.42,162.9 L 77.42,158.9 L 78.42,154.9 L 79.42,150.9 L 80.42,146.9 L 81.42,142.9 L 83.42,138.9 L 85.42,135.9 L 88.42,131.9 L 90.42,128.9 L 93.42,125.9 L 91.42,121.9 L 90.42,117.9 L 89.42,113.9 L 91.42,111.9 Z" />
  <path data-name="Gvatemala" d="M 113.42,184.9 L 116.42,180.9 L 119.42,176.9 L 123.42,172.9 L 123.42,178.9 L 122.42,183.9 L 120.42,188.9 L 116.42,190.9 L 113.42,184.9 Z" />
  <path data-name="Salvador" d="M 120.42,188.9 L 122.42,183.9 L 123.42,178.9 L 126.42,182.9 L 128.42,187.9 L 125.42,189.9 L 122.42,192.9 L 120.42,188.9 Z" />
  <path data-name="Honduras" d="M 123.42,172.9 L 126.42,168.9 L 129.42,164.9 L 132.42,160.9 L 134.42,166.9 L 131.42,170.9 L 128.42,174.9 L 126.42,179.9 L 123.42,178.9 L 123.42,172.9 Z" />
  <path data-name="Nikaragva" d="M 125.42,189.9 L 128.42,187.9 L 126.42,182.9 L 123.42,178.9 L 126.42,179.9 L 128.42,174.9 L 131.42,170.9 L 134.42,166.9 L 137.42,171.9 L 139.42,175.9 L 137.42,178.9 L 134.42,182.9 L 130.42,185.9 L 127.42,189.9 L 125.42,194.9 L 125.42,189.9 Z" />
  <path data-name="Kostarika" d="M 125.42,194.9 L 127.42,189.9 L 130.42,185.9 L 134.42,182.9 L 137.42,178.9 L 139.42,175.9 L 142.42,181.9 L 139.42,185.9 L 135.42,188.9 L 131.42,191.9 L 128.42,194.9 L 125.42,198.9 L 125.42,194.9 Z" />
  <path data-name="Panama" d="M 125.42,198.9 L 128.42,194.9 L 131.42,191.9 L 135.42,188.9 L 139.42,185.9 L 142.42,181.9 L 146.42,185.9 L 150.42,187.9 L 152.42,192.9 L 150.42,196.9 L 146.42,199.9 L 142.42,201.9 L 139.42,203.9 L 137.42,206.9 L 134.42,210.9 L 131.42,206.9 L 128.42,202.9 L 125.42,198.9 Z" />

  <!-- South America -->
  <path data-name="Kolumbija" d="M 134.42,210.9 L 137.42,206.9 L 139.42,203.9 L 142.42,201.9 L 146.42,199.9 L 150.42,196.9 L 152.42,192.9 L 155.42,197.9 L 157.42,202.9 L 160.42,207.9 L 162.42,212.9 L 164.42,217.9 L 165.42,222.9 L 165.42,227.9 L 164.42,232.9 L 162.42,237.9 L 156.42,238.9 L 152.42,240.9 L 148.42,239.9 L 144.42,237.9 L 140.42,234.9 L 137.42,230.9 L 136.42,225.9 L 135.42,220.9 L 134.42,215.9 L 134.42,210.9 Z" />
  <path data-name="Venecuela" d="M 162.42,237.9 L 164.42,232.9 L 165.42,227.9 L 165.42,222.9 L 164.42,217.9 L 162.42,212.9 L 160.42,207.9 L 165.42,212.9 L 169.42,216.9 L 173.42,220.9 L 177.42,224.9 L 181.42,228.9 L 185.42,232.9 L 189.42,236.9 L 184.42,238.9 L 180.42,240.9 L 175.42,242.9 L 171.42,244.9 L 166.42,245.9 L 162.42,237.9 Z" />
  <path data-name="Gvajana" d="M 189.42,236.9 L 193.42,232.9 L 197.42,228.9 L 202.42,226.9 L 206.42,231.9 L 204.42,235.9 L 201.42,239.9 L 197.42,242.9 L 194.42,245.9 L 190.42,240.9 L 189.42,236.9 Z" />
  <path data-name="Surinam" d="M 194.42,245.9 L 197.42,242.9 L 201.42,239.9 L 204.42,235.9 L 206.42,231.9 L 211.42,235.9 L 214.42,238.9 L 212.42,242.9 L 209.42,246.9 L 206.42,250.9 L 202.42,254.9 L 198.42,250.9 L 194.42,245.9 Z" />
  <path data-name="Francuska Gvajana" d="M 202.42,254.9 L 206.42,250.9 L 209.42,246.9 L 212.42,242.9 L 214.42,238.9 L 219.42,242.9 L 221.42,247.9 L 220.42,251.9 L 218.42,255.9 L 214.42,258.9 L 211.42,262.9 L 207.42,258.9 L 204.42,255.9 L 202.42,254.9 Z" />
  <path data-name="Brazil" d="M 162.42,237.9 L 166.42,245.9 L 171.42,244.9 L 175.42,242.9 L 180.42,240.9 L 184.42,238.9 L 189.42,236.9 L 190.42,240.9 L 194.42,245.9 L 198.42,250.9 L 202.42,254.9 L 204.42,255.9 L 207.42,258.9 L 211.42,262.9 L 214.42,266.9 L 217.42,270.9 L 220.42,274.9 L 223.42,278.9 L 226.42,282.9 L 229.42,286.9 L 232.42,290.9 L 235.42,294.9 L 238.42,298.9 L 241.42,302.9 L 244.42,306.9 L 246.42,310.9 L 246.42,315.9 L 245.42,320.9 L 243.42,324.9 L 240.42,328.9 L 237.42,332.9 L 233.42,336.9 L 229.42,339.9 L 225.42,342.9 L 221.42,344.9 L 217.42,346.9 L 213.42,348.9 L 209.42,350.9 L 205.42,352.9 L 201.42,354.9 L 197.42,356.9 L 193.42,358.9 L 189.42,358.9 L 185.42,352.9 L 182.42,348.9 L 179.42,344.9 L 176.42,340.9 L 173.42,336.9 L 170.42,332.9 L 168.42,328.9 L 166.42,324.9 L 165.42,320.9 L 163.42,316.9 L 161.42,312.9 L 159.42,308.9 L 157.42,304.9 L 156.42,300.9 L 155.42,296.9 L 155.42,292.9 L 154.42,288.9 L 154.42,284.9 L 155.42,280.9 L 155.42,276.9 L 156.42,272.9 L 157.42,268.9 L 159.42,264.9 L 160.42,260.9 L 162.42,256.9 L 164.42,252.9 L 166.42,248.9 L 162.42,237.9 Z" />
  <path data-name="Ekvador" d="M 136.42,225.9 L 137.42,230.9 L 140.42,234.9 L 144.42,237.9 L 148.42,239.9 L 152.42,240.9 L 156.42,238.9 L 154.42,242.9 L 151.42,246.9 L 148.42,250.9 L 144.42,252.9 L 141.42,250.9 L 138.42,247.9 L 136.42,244.9 L 134.42,240.9 L 133.42,236.9 L 134.42,231.9 L 135.42,225.9 L 136.42,225.9 Z" />
  <path data-name="Peru" d="M 133.42,236.9 L 134.42,240.9 L 136.42,244.9 L 138.42,247.9 L 141.42,250.9 L 144.42,252.9 L 148.42,250.9 L 151.42,246.9 L 154.42,242.9 L 156.42,238.9 L 162.42,237.9 L 166.42,248.9 L 164.42,252.9 L 162.42,256.9 L 160.42,260.9 L 159.42,264.9 L 157.42,268.9 L 156.42,272.9 L 155.42,276.9 L 155.42,280.9 L 154.42,284.9 L 154.42,288.9 L 149.42,290.9 L 144.42,292.9 L 139.42,294.9 L 134.42,294.9 L 129.42,292.9 L 127.42,288.9 L 126.42,284.9 L 126.42,280.9 L 126.42,276.9 L 126.42,272.9 L 127.42,268.9 L 128.42,264.9 L 129.42,260.9 L 130.42,256.9 L 131.42,252.9 L 132.42,248.9 L 132.42,244.9 L 133.42,240.9 L 133.42,236.9 Z" />
  <path data-name="Bolivija" d="M 154.42,288.9 L 155.42,292.9 L 155.42,296.9 L 156.42,300.9 L 157.42,304.9 L 159.42,308.9 L 161.42,312.9 L 163.42,316.9 L 165.42,320.9 L 166.42,324.9 L 166.42,328.9 L 161.42,330.9 L 157.42,332.9 L 152.42,334.9 L 148.42,336.9 L 143.42,338.9 L 139.42,335.9 L 135.42,331.9 L 133.42,327.9 L 131.42,323.9 L 130.42,319.9 L 129.42,315.9 L 128.42,311.9 L 128.42,307.9 L 129.42,303.9 L 130.42,299.9 L 132.42,295.9 L 134.42,294.9 L 139.42,294.9 L 144.42,292.9 L 149.42,290.9 L 154.42,288.9 Z" />
  <path data-name="Paragvaj" d="M 166.42,328.9 L 168.42,328.9 L 170.42,332.9 L 173.42,336.9 L 176.42,340.9 L 179.42,344.9 L 179.42,348.9 L 177.42,352.9 L 174.42,356.9 L 170.42,358.9 L 166.42,360.9 L 162.42,362.9 L 158.42,360.9 L 155.42,356.9 L 152.42,352.9 L 150.42,348.9 L 148.42,344.9 L 147.42,340.9 L 146.42,336.9 L 148.42,336.9 L 152.42,334.9 L 157.42,332.9 L 161.42,330.9 L 166.42,328.9 Z" />
  <path data-name="Urugvaj" d="M 174.42,356.9 L 177.42,352.9 L 179.42,348.9 L 179.42,344.9 L 182.42,348.9 L 185.42,352.9 L 189.42,358.9 L 188.42,362.9 L 186.42,366.9 L 184.42,370.9 L 181.42,374.9 L 177.42,376.9 L 173.42,376.9 L 173.42,372.9 L 172.42,368.9 L 172.42,364.9 L 173.42,360.9 L 174.42,356.9 Z" />
  <path data-name="Argentina" d="M 147.42,340.9 L 148.42,344.9 L 150.42,348.9 L 152.42,352.9 L 155.42,356.9 L 158.42,360.9 L 162.42,362.9 L 166.42,360.9 L 170.42,358.9 L 174.42,356.9 L 173.42,360.9 L 172.42,364.9 L 172.42,368.9 L 173.42,372.9 L 173.42,376.9 L 173.42,380.9 L 172.42,384.9 L 171.42,388.9 L 170.42,392.9 L 168.42,396.9 L 166.42,400.9 L 163.42,404.9 L 160.42,407.9 L 156.42,410.9 L 152.42,412.9 L 148.42,413.9 L 144.42,413.9 L 140.42,412.9 L 137.42,410.9 L 134.42,407.9 L 132.42,404.9 L 129.42,401.9 L 128.42,397.9 L 127.42,393.9 L 127.42,389.9 L 127.42,385.9 L 128.42,381.9 L 129.42,377.9 L 131.42,373.9 L 133.42,369.9 L 135.42,366.9 L 137.42,363.9 L 139.42,359.9 L 142.42,355.9 L 144.42,352.9 L 146.42,348.9 L 146.42,344.9 L 146.42,340.9 L 147.42,340.9 Z" />
  <path data-name="Čile" d="M 128.42,307.9 L 128.42,311.9 L 129.42,315.9 L 130.42,319.9 L 131.42,323.9 L 133.42,327.9 L 135.42,331.9 L 139.42,335.9 L 143.42,338.9 L 143.42,342.9 L 142.42,346.9 L 139.42,350.9 L 137.42,354.9 L 134.42,359.9 L 132.42,363.9 L 130.42,368.9 L 129.42,372.9 L 127.42,376.9 L 126.42,381.9 L 126.42,385.9 L 127.42,389.9 L 127.42,393.9 L 128.42,397.9 L 129.42,401.9 L 132.42,404.9 L 127.42,406.9 L 122.42,408.9 L 119.42,411.9 L 115.42,407.9 L 112.42,403.9 L 109.42,399.9 L 107.42,395.9 L 106.42,390.9 L 106.42,386.9 L 107.42,382.9 L 108.42,378.9 L 110.42,374.9 L 112.42,370.9 L 114.42,366.9 L 116.42,362.9 L 118.42,358.9 L 119.42,354.9 L 121.42,350.9 L 122.42,346.9 L 124.42,342.9 L 125.42,338.9 L 126.42,334.9 L 126.42,330.9 L 126.42,326.9 L 126.42,322.9 L 126.42,318.9 L 126.42,314.9 L 126.42,310.9 L 127.42,306.9 L 127.42,302.9 L 127.42,298.9 L 128.42,303.9 L 128.42,307.9 Z" />

  <!-- Europe -->
  <path data-name="Srbija" d="M 535.42,210.9 L 536.42,213.9 L 538.42,216.9 L 540.42,219.9 L 542.42,222.9 L 544.42,225.9 L 542.42,228.9 L 539.42,230.9 L 536.42,232.9 L 533.42,234.9 L 530.42,232.9 L 528.42,229.9 L 527.42,226.9 L 528.42,223.9 L 530.42,220.9 L 532.42,217.9 L 534.42,214.9 L 535.42,210.9 Z" />
  <path data-name="Hrvatska" d="M 520.42,214.9 L 523.42,216.9 L 525.42,220.9 L 522.42,222.9 L 519.42,225.9 L 515.42,225.9 L 512.42,223.9 L 510.42,221.9 L 512.42,218.9 L 514.42,216.9 L 517.42,214.9 L 520.42,214.9 Z" />
  <path data-name="Bosna i Hercegovina" d="M 525.42,220.9 L 527.42,219.9 L 529.42,217.9 L 531.42,215.9 L 533.42,213.9 L 535.42,210.9 L 534.42,214.9 L 532.42,217.9 L 530.42,220.9 L 528.42,223.9 L 527.42,226.9 L 524.42,229.9 L 521.42,231.9 L 518.42,233.9 L 515.42,230.9 L 515.42,227.9 L 515.42,225.9 L 519.42,225.9 L 522.42,222.9 L 525.42,220.9 Z" />
  <path data-name="Crna Gora" d="M 536.42,232.9 L 539.42,230.9 L 542.42,228.9 L 545.42,230.9 L 544.42,233.9 L 543.42,236.9 L 540.42,238.9 L 537.42,238.9 L 534.42,237.9 L 534.42,234.9 L 536.42,232.9 Z" />
  <path data-name="Bugarska" d="M 547.42,217.9 L 551.42,219.9 L 555.42,221.9 L 558.42,224.9 L 561.42,227.9 L 564.42,230.9 L 562.42,233.9 L 559.42,236.9 L 556.42,238.9 L 553.42,240.9 L 550.42,242.9 L 547.42,244.9 L 545.42,247.9 L 542.42,245.9 L 543.42,242.9 L 543.42,239.9 L 544.42,236.9 L 544.42,233.9 L 545.42,230.9 L 546.42,227.9 L 547.42,224.9 L 548.42,220.9 L 547.42,217.9 Z" />
  <path data-name="Severna Makedonija" d="M 542.42,245.9 L 545.42,247.9 L 547.42,244.9 L 550.42,242.9 L 553.42,240.9 L 556.42,242.9 L 556.42,245.9 L 553.42,248.9 L 549.42,250.9 L 546.42,252.9 L 542.42,253.9 L 538.42,252.9 L 539.42,249.9 L 540.42,246.9 L 542.42,245.9 Z" />
  <path data-name="Kosovo" d="M 539.42,230.9 L 542.42,228.9 L 544.42,225.9 L 547.42,226.9 L 549.42,229.9 L 549.42,232.9 L 548.42,235.9 L 545.42,236.9 L 543.42,236.9 L 543.42,233.9 L 540.42,233.9 L 539.42,230.9 Z" />
  <path data-name="Albanija" d="M 534.42,237.9 L 534.42,234.9 L 537.42,238.9 L 540.42,238.9 L 543.42,239.9 L 542.42,242.9 L 541.42,245.9 L 539.42,248.9 L 536.42,250.9 L 533.42,249.9 L 534.42,246.9 L 534.42,243.9 L 534.42,240.9 L 534.42,237.9 Z" />
  <path data-name="Grčka" d="M 538.42,252.9 L 542.42,253.9 L 546.42,252.9 L 549.42,250.9 L 553.42,248.9 L 556.42,245.9 L 560.42,248.9 L 562.42,251.9 L 564.42,254.9 L 566.42,257.9 L 567.42,261.9 L 568.42,265.9 L 568.42,269.9 L 567.42,273.9 L 565.42,276.9 L 562.42,279.9 L 558.42,281.9 L 554.42,282.9 L 550.42,281.9 L 546.42,280.9 L 543.42,277.9 L 540.42,274.9 L 537.42,272.9 L 535.42,269.9 L 534.42,266.9 L 533.42,263.9 L 533.42,260.9 L 534.42,257.9 L 535.42,254.9 L 537.42,250.9 L 538.42,252.9 Z" />
  <path data-name="Rumunija" d="M 536.42,213.9 L 540.42,210.9 L 544.42,208.9 L 548.42,210.9 L 552.42,213.9 L 556.42,216.9 L 560.42,218.9 L 564.42,218.9 L 564.42,214.9 L 563.42,210.9 L 561.42,208.9 L 558.42,205.9 L 555.42,202.9 L 551.42,200.9 L 547.42,199.9 L 543.42,197.9 L 539.42,197.9 L 536.42,200.9 L 533.42,203.9 L 531.42,207.9 L 535.42,210.9 L 536.42,213.9 Z" />
  <path data-name="Mađarska" d="M 529.42,196.9 L 532.42,198.9 L 535.42,198.9 L 538.42,199.9 L 542.42,198.9 L 545.42,196.9 L 548.42,195.9 L 550.42,192.9 L 551.42,189.9 L 548.42,186.9 L 544.42,185.9 L 541.42,183.9 L 537.42,183.9 L 533.42,184.9 L 529.42,186.9 L 526.42,188.9 L 523.42,190.9 L 520.42,193.9 L 524.42,195.9 L 527.42,196.9 L 529.42,196.9 Z" />
  <path data-name="Austrija" d="M 520.42,193.9 L 523.42,190.9 L 526.42,188.9 L 529.42,186.9 L 533.42,184.9 L 531.42,182.9 L 528.42,181.9 L 525.42,179.9 L 522.42,177.9 L 519.42,176.9 L 516.42,176.9 L 513.42,177.9 L 510.42,179.9 L 507.42,181.9 L 505.42,184.9 L 507.42,187.9 L 510.42,190.9 L 513.42,192.9 L 516.42,194.9 L 520.42,193.9 Z" />
  <path data-name="Slovenija" d="M 514.42,194.9 L 517.42,197.9 L 520.42,199.9 L 523.42,201.9 L 525.42,204.9 L 522.42,208.9 L 519.42,211.9 L 516.42,214.9 L 513.42,212.9 L 510.42,210.9 L 508.42,207.9 L 508.42,204.9 L 509.42,201.9 L 511.42,198.9 L 514.42,194.9 Z" />
  <path data-name="Italija" d="M 493.42,202.9 L 497.42,204.9 L 501.42,206.9 L 505.42,208.9 L 508.42,207.9 L 510.42,210.9 L 513.42,212.9 L 516.42,214.9 L 514.42,216.9 L 512.42,218.9 L 510.42,221.9 L 507.42,224.9 L 504.42,227.9 L 501.42,230.9 L 498.42,232.9 L 495.42,235.9 L 492.42,238.9 L 489.42,240.9 L 486.42,243.9 L 483.42,246.9 L 480.42,248.9 L 477.42,250.9 L 474.42,250.9 L 476.42,247.9 L 478.42,244.9 L 481.42,241.9 L 483.42,239.9 L 486.42,236.9 L 488.42,233.9 L 490.42,230.9 L 492.42,227.9 L 494.42,224.9 L 495.42,220.9 L 497.42,218.9 L 498.42,214.9 L 500.42,211.9 L 501.42,208.9 L 499.42,205.9 L 497.42,202.9 L 493.42,202.9 Z M 460.42,205.9 L 462.42,202.9 L 465.42,200.9 L 468.42,199.9 L 471.42,200.9 L 474.42,203.9 L 476.42,207.9 L 478.42,209.9 L 479.42,214.9 L 479.42,218.9 L 478.42,222.9 L 476.42,226.9 L 474.42,229.9 L 471.42,232.9 L 467.42,234.9 L 464.42,236.9 L 461.42,238.9 L 458.42,235.9 L 456.42,232.9 L 455.42,229.9 L 454.42,225.9 L 454.42,222.9 L 455.42,219.9 L 455.42,216.9 L 457.42,213.9 L 458.42,210.9 L 458.42,207.9 L 460.42,205.9 Z" />
  <path data-name="San Marino" d="M 488.42,217.9 L 489.42,220.9 L 488.42,223.9 L 486.42,222.9 L 485.42,219.9 L 486.42,217.9 L 488.42,217.9 Z" />
  <path data-name="Vatikan" d="M 476.42,244.9 L 477.42,246.9 L 475.42,248.9 L 474.42,246.9 L 476.42,244.9 Z" />
  <path data-name="Švajcarska" d="M 497.42,181.9 L 500.42,178.9 L 503.42,175.9 L 507.42,177.9 L 510.42,179.9 L 513.42,177.9 L 516.42,176.9 L 518.42,180.9 L 519.42,184.9 L 520.42,188.9 L 516.42,194.9 L 513.42,192.9 L 510.42,190.9 L 507.42,187.9 L 504.42,184.9 L 501.42,184.9 L 498.42,185.9 L 497.42,181.9 Z" />
  <path data-name="Lihtenštajn" d="M 500.42,177.9 L 502.42,175.9 L 504.42,174.9 L 506.42,177.9 L 506.42,180.9 L 504.42,182.9 L 502.42,183.9 L 500.42,181.9 L 500.42,177.9 Z" />
  <path data-name="Francuska" d="M 461.42,177.9 L 464.42,176.9 L 467.42,175.9 L 470.42,174.9 L 473.42,172.9 L 476.42,171.9 L 479.42,170.9 L 482.42,171.9 L 485.42,172.9 L 488.42,172.9 L 491.42,173.9 L 493.42,175.9 L 495.42,178.9 L 497.42,181.9 L 498.42,185.9 L 496.42,188.9 L 493.42,190.9 L 490.42,192.9 L 487.42,192.9 L 484.42,194.9 L 481.42,195.9 L 478.42,197.9 L 475.42,197.9 L 472.42,196.9 L 469.42,195.9 L 466.42,194.9 L 463.42,193.9 L 460.42,196.9 L 457.42,197.9 L 454.42,198.9 L 451.42,199.9 L 449.42,201.9 L 446.42,200.9 L 443.42,199.9 L 441.42,197.9 L 440.42,194.9 L 441.42,191.9 L 442.42,189.9 L 444.42,186.9 L 445.42,183.9 L 447.42,180.9 L 449.42,178.9 L 451.42,175.9 L 453.42,173.9 L 456.42,172.9 L 458.42,174.9 L 461.42,177.9 Z" />
  <path data-name="Monako" d="M 465.42,202.9 L 466.42,200.9 L 468.42,199.9 L 470.42,200.9 L 469.42,203.9 L 468.42,205.9 L 466.42,206.9 L 464.42,205.9 L 465.42,202.9 Z" />
  <path data-name="Španija" d="M 421.42,205.9 L 424.42,207.9 L 427.42,209.9 L 430.42,209.9 L 433.42,210.9 L 436.42,212.9 L 439.42,214.9 L 442.42,214.9 L 445.42,213.9 L 448.42,213.9 L 451.42,214.9 L 454.42,214.9 L 457.42,213.9 L 458.42,210.9 L 458.42,207.9 L 457.42,204.9 L 455.42,201.9 L 454.42,198.9 L 451.42,199.9 L 449.42,201.9 L 446.42,200.9 L 443.42,199.9 L 441.42,197.9 L 439.42,195.9 L 436.42,196.9 L 433.42,198.9 L 430.42,200.9 L 427.42,201.9 L 424.42,201.9 L 421.42,201.9 L 418.42,201.9 L 415.42,200.9 L 412.42,199.9 L 409.42,198.9 L 408.42,201.9 L 408.42,204.9 L 411.42,205.9 L 415.42,205.9 L 418.42,205.9 L 421.42,205.9 Z" />
  <path data-name="Andora" d="M 448.42,207.9 L 449.42,205.9 L 451.42,204.9 L 453.42,205.9 L 453.42,207.9 L 452.42,209.9 L 450.42,210.9 L 448.42,209.9 L 448.42,207.9 Z" />
  <path data-name="Portugal" d="M 402.42,202.9 L 405.42,201.9 L 408.42,201.9 L 408.42,204.9 L 408.42,207.9 L 406.42,210.9 L 404.42,213.9 L 402.42,216.9 L 399.42,218.9 L 396.42,220.9 L 394.42,218.9 L 394.42,215.9 L 394.42,212.9 L 395.42,210.9 L 396.42,207.9 L 398.42,205.9 L 400.42,203.9 L 402.42,202.9 Z" />
  <path data-name="Gibraltar" d="M 413.42,219.9 L 414.42,218.9 L 415.42,220.9 L 414.42,221.9 L 413.42,219.9 Z" />
  <path data-name="Nemačka" d="M 492.42,147.9 L 495.42,149.9 L 498.42,151.9 L 501.42,152.9 L 504.42,153.9 L 507.42,154.9 L 509.42,156.9 L 511.42,154.9 L 513.42,152.9 L 516.42,150.9 L 518.42,148.9 L 520.42,146.9 L 522.42,145.9 L 524.42,147.9 L 525.42,150.9 L 526.42,153.9 L 526.42,156.9 L 525.42,159.9 L 524.42,162.9 L 522.42,164.9 L 520.42,166.9 L 517.42,168.9 L 515.42,170.9 L 512.42,172.9 L 509.42,174.9 L 506.42,177.9 L 504.42,174.9 L 502.42,175.9 L 500.42,177.9 L 497.42,175.9 L 494.42,174.9 L 491.42,173.9 L 488.42,172.9 L 486.42,169.9 L 485.42,166.9 L 486.42,163.9 L 488.42,161.9 L 490.42,159.9 L 492.42,157.9 L 492.42,154.9 L 491.42,151.9 L 492.42,147.9 Z M 504.42,182.9 L 506.42,180.9 L 509.42,178.9 L 512.42,176.9 L 515.42,174.9 L 518.42,173.9 L 520.42,175.9 L 522.42,177.9 L 525.42,179.9 L 523.42,182.9 L 520.42,185.9 L 517.42,186.9 L 514.42,188.9 L 511.42,190.9 L 507.42,192.9 L 504.42,192.9 L 501.42,191.9 L 498.42,189.9 L 498.42,185.9 L 501.42,184.9 L 504.42,182.9 Z" />
  <path data-name="Belgija" d="M 462.42,167.9 L 465.42,168.9 L 468.42,168.9 L 471.42,169.9 L 474.42,171.9 L 473.42,174.9 L 471.42,177.9 L 469.42,180.9 L 467.42,182.9 L 464.42,183.9 L 461.42,182.9 L 459.42,180.9 L 459.42,177.9 L 459.42,174.9 L 460.42,171.9 L 462.42,167.9 Z" />
  <path data-name="Luksemburg" d="M 474.42,171.9 L 476.42,170.9 L 478.42,168.9 L 479.42,170.9 L 479.42,173.9 L 477.42,175.9 L 475.42,176.9 L 473.42,174.9 L 474.42,171.9 Z" />
  <path data-name="Holandija" d="M 470.42,157.9 L 473.42,158.9 L 476.42,159.9 L 479.42,160.9 L 482.42,162.9 L 483.42,165.9 L 481.42,167.9 L 478.42,168.9 L 476.42,170.9 L 474.42,171.9 L 471.42,169.9 L 468.42,168.9 L 466.42,166.9 L 465.42,163.9 L 466.42,160.9 L 468.42,158.9 L 470.42,157.9 Z" />
  <path data-name="Češka" d="M 510.42,167.9 L 513.42,166.9 L 516.42,166.9 L 519.42,166.9 L 522.42,164.9 L 524.42,162.9 L 525.42,159.9 L 526.42,156.9 L 529.42,159.9 L 532.42,161.9 L 535.42,163.9 L 537.42,166.9 L 538.42,169.9 L 537.42,172.9 L 535.42,175.9 L 532.42,176.9 L 529.42,178.9 L 526.42,177.9 L 523.42,176.9 L 520.42,174.9 L 517.42,172.9 L 513.42,171.9 L 510.42,171.9 L 507.42,170.9 L 509.42,169.9 L 510.42,167.9 Z" />
  <path data-name="Slovačka" d="M 527.42,177.9 L 530.42,175.9 L 533.42,174.9 L 536.42,173.9 L 539.42,172.9 L 542.42,173.9 L 544.42,176.9 L 545.42,179.9 L 544.42,182.9 L 541.42,183.9 L 537.42,183.9 L 534.42,181.9 L 531.42,182.9 L 528.42,181.9 L 527.42,177.9 Z" />
  <path data-name="Poljska" d="M 517.42,148.9 L 520.42,146.9 L 524.42,144.9 L 528.42,142.9 L 532.42,141.9 L 536.42,142.9 L 540.42,144.9 L 544.42,145.9 L 546.42,148.9 L 547.42,151.9 L 547.42,154.9 L 546.42,157.9 L 544.42,160.9 L 542.42,163.9 L 538.42,165.9 L 535.42,163.9 L 532.42,161.9 L 529.42,159.9 L 526.42,156.9 L 526.42,153.9 L 523.42,151.9 L 520.42,153.9 L 517.42,153.9 L 517.42,150.9 L 517.42,148.9 Z" />
  <path data-name="Danska" d="M 489.42,136.9 L 492.42,135.9 L 495.42,135.9 L 498.42,136.9 L 500.42,139.9 L 501.42,142.9 L 499.42,145.9 L 497.42,148.9 L 494.42,149.9 L 492.42,147.9 L 491.42,145.9 L 490.42,142.9 L 489.42,139.9 L 489.42,136.9 Z" />
  <path data-name="Švedska" d="M 504.42,96.9 L 507.42,99.9 L 509.42,102.9 L 510.42,105.9 L 511.42,108.9 L 512.42,111.9 L 514.42,114.9 L 515.42,118.9 L 515.42,121.9 L 514.42,124.9 L 513.42,127.9 L 510.42,130.9 L 508.42,133.9 L 505.42,136.9 L 503.42,133.9 L 502.42,130.9 L 500.42,127.9 L 498.42,124.9 L 496.42,121.9 L 495.42,118.9 L 497.42,115.9 L 499.42,112.9 L 501.42,109.9 L 502.42,106.9 L 503.42,103.9 L 503.42,99.9 L 504.42,96.9 Z" />
  <path data-name="Norveška" d="M 476.42,73.9 L 479.42,75.9 L 482.42,77.9 L 485.42,80.9 L 488.42,82.9 L 491.42,84.9 L 494.42,86.9 L 497.42,88.9 L 500.42,90.9 L 502.42,93.9 L 504.42,96.9 L 503.42,99.9 L 503.42,103.9 L 502.42,106.9 L 499.42,104.9 L 496.42,102.9 L 493.42,100.9 L 489.42,99.9 L 486.42,97.9 L 483.42,94.9 L 480.42,91.9 L 477.42,88.9 L 475.42,85.9 L 474.42,82.9 L 475.42,79.9 L 476.42,76.9 L 476.42,73.9 Z" />
  <path data-name="Finska" d="M 528.42,78.9 L 530.42,81.9 L 532.42,84.9 L 534.42,87.9 L 536.42,90.9 L 538.42,93.9 L 540.42,96.9 L 539.42,99.9 L 538.42,102.9 L 536.42,105.9 L 533.42,108.9 L 529.42,109.9 L 526.42,110.9 L 523.42,110.9 L 520.42,109.9 L 517.42,107.9 L 514.42,104.9 L 511.42,102.9 L 511.42,99.9 L 510.42,96.9 L 512.42,94.9 L 514.42,92.9 L 516.42,90.9 L 518.42,87.9 L 521.42,85.9 L 523.42,82.9 L 526.42,80.9 L 528.42,78.9 Z" />
  <path data-name="Rusija" d="M 546.42,62.9 L 549.42,65.9 L 552.42,68.9 L 555.42,71.9 L 558.42,74.9 L 561.42,77.9 L 564.42,80.9 L 567.42,83.9 L 570.42,86.9 L 573.42,89.9 L 576.42,92.9 L 579.42,95.9 L 582.42,98.9 L 585.42,101.9 L 588.42,104.9 L 591.42,107.9 L 594.42,110.9 L 597.42,113.9 L 600.42,116.9 L 603.42,119.9 L 605.42,122.9 L 607.42,125.9 L 609.42,128.9 L 611.42,131.9 L 613.42,134.9 L 615.42,137.9 L 617.42,140.9 L 619.42,143.9 L 621.42,146.9 L 623.42,149.9 L 625.42,152.9 L 626.42,156.9 L 628.42,159.9 L 629.42,162.9 L 630.42,166.9 L 631.42,169.9 L 632.42,172.9 L 633.42,175.9 L 634.42,178.9 L 635.42,181.9 L 636.42,184.9 L 637.42,187.9 L 637.42,190.9 L 637.42,193.9 L 637.42,196.9 L 636.42,199.9 L 635.42,202.9 L 633.42,205.9 L 631.42,208.9 L 628.42,211.9 L 625.42,214.9 L 622.42,216.9 L 619.42,219.9 L 616.42,221.9 L 613.42,222.9 L 610.42,223.9 L 607.42,223.9 L 604.42,222.9 L 602.42,220.9 L 599.42,218.9 L 596.42,215.9 L 593.42,213.9 L 590.42,211.9 L 587.42,209.9 L 584.42,207.9 L 581.42,206.9 L 578.42,204.9 L 575.42,201.9 L 572.42,198.9 L 569.42,195.9 L 566.42,192.9 L 564.42,189.9 L 562.42,186.9 L 560.42,184.9 L 557.42,181.9 L 555.42,178.9 L 553.42,175.9 L 551.42,172.9 L 550.42,170.9 L 549.42,167.9 L 547.42,164.9 L 546.42,161.9 L 545.42,158.9 L 543.42,155.9 L 541.42,152.9 L 539.42,149.9 L 537.42,146.9 L 534.42,144.9 L 531.42,141.9 L 528.42,138.9 L 525.42,136.9 L 522.42,133.9 L 519.42,130.9 L 517.42,127.9 L 516.42,124.9 L 514.42,121.9 L 513.42,118.9 L 512.42,115.9 L 511.42,113.9 L 510.42,110.9 L 509.42,107.9 L 510.42,105.9 L 510.42,102.9 L 510.42,99.9 L 511.42,96.9 L 511.42,93.9 L 512.42,91.9 L 513.42,88.9 L 514.42,85.9 L 516.42,84.9 L 518.42,82.9 L 520.42,79.9 L 522.42,76.9 L 524.42,74.9 L 527.42,72.9 L 530.42,70.9 L 533.42,69.9 L 536.42,68.9 L 539.42,66.9 L 542.42,65.9 L 545.42,63.9 L 546.42,62.9 Z" />
  <path data-name="Estonija" d="M 525.42,110.9 L 528.42,111.9 L 531.42,111.9 L 534.42,112.9 L 536.42,114.9 L 535.42,117.9 L 533.42,119.9 L 530.42,120.9 L 527.42,120.9 L 525.42,119.9 L 524.42,116.9 L 525.42,113.9 L 525.42,110.9 Z" />
  <path data-name="Letonija" d="M 523.42,120.9 L 526.42,121.9 L 529.42,122.9 L 532.42,122.9 L 535.42,124.9 L 535.42,127.9 L 534.42,130.9 L 532.42,132.9 L 529.42,133.9 L 526.42,133.9 L 523.42,132.9 L 521.42,131.9 L 519.42,129.9 L 519.42,126.9 L 521.42,123.9 L 523.42,120.9 Z" />
  <path data-name="Litvanija" d="M 519.42,133.9 L 522.42,134.9 L 525.42,134.9 L 528.42,135.9 L 530.42,136.9 L 531.42,139.9 L 532.42,142.9 L 531.42,145.9 L 529.42,147.9 L 526.42,148.9 L 523.42,148.9 L 520.42,146.9 L 518.42,144.9 L 517.42,141.9 L 517.42,138.9 L 518.42,135.9 L 519.42,133.9 Z" />
  <path data-name="Belorusija" d="M 532.42,142.9 L 535.42,143.9 L 538.42,143.9 L 541.42,145.9 L 544.42,147.9 L 546.42,150.9 L 547.42,153.9 L 547.42,156.9 L 546.42,159.9 L 544.42,162.9 L 541.42,163.9 L 538.42,164.9 L 535.42,164.9 L 532.42,163.9 L 529.42,162.9 L 527.42,159.9 L 525.42,156.9 L 524.42,153.9 L 524.42,150.9 L 524.42,147.9 L 526.42,144.9 L 529.42,147.9 L 531.42,145.9 L 532.42,142.9 Z" />
  <path data-name="Ukrajina" d="M 543.42,156.9 L 547.42,154.9 L 550.42,155.9 L 553.42,155.9 L 556.42,157.9 L 559.42,159.9 L 562.42,161.9 L 565.42,164.9 L 568.42,166.9 L 571.42,168.9 L 574.42,171.9 L 577.42,174.9 L 580.42,177.9 L 582.42,180.9 L 584.42,183.9 L 586.42,186.9 L 587.42,190.9 L 588.42,193.9 L 588.42,196.9 L 587.42,200.9 L 586.42,204.9 L 584.42,207.9 L 581.42,206.9 L 578.42,204.9 L 575.42,201.9 L 572.42,198.9 L 569.42,195.9 L 566.42,192.9 L 563.42,190.9 L 560.42,189.9 L 557.42,187.9 L 554.42,185.9 L 551.42,184.9 L 548.42,182.9 L 545.42,181.9 L 542.42,179.9 L 539.42,178.9 L 536.42,177.9 L 533.42,175.9 L 531.42,172.9 L 529.42,169.9 L 532.42,168.9 L 535.42,167.9 L 538.42,166.9 L 541.42,165.9 L 543.42,161.9 L 543.42,159.9 L 543.42,156.9 Z" />
  <path data-name="Moldavija" d="M 564.42,193.9 L 567.42,195.9 L 564.42,197.9 L 561.42,199.9 L 559.42,201.9 L 558.42,204.9 L 557.42,201.9 L 556.42,198.9 L 558.42,195.9 L 560.42,193.9 L 563.42,193.9 L 564.42,193.9 Z" />
  <path data-name="Velika Britanija" d="M 447.42,137.9 L 450.42,138.9 L 453.42,140.9 L 456.42,142.9 L 458.42,144.9 L 459.42,148.9 L 461.42,152.9 L 461.42,156.9 L 459.42,159.9 L 457.42,162.9 L 454.42,163.9 L 451.42,164.9 L 448.42,165.9 L 445.42,164.9 L 442.42,162.9 L 440.42,159.9 L 439.42,156.9 L 439.42,153.9 L 440.42,150.9 L 441.42,147.9 L 443.42,144.9 L 445.42,141.9 L 447.42,137.9 Z" />
  <path data-name="Irska" d="M 437.42,143.9 L 439.42,146.9 L 440.42,150.9 L 439.42,153.9 L 439.42,156.9 L 437.42,159.9 L 434.42,160.9 L 431.42,161.9 L 428.42,160.9 L 427.42,157.9 L 426.42,154.9 L 427.42,151.9 L 428.42,148.9 L 430.42,145.9 L 432.42,143.9 L 435.42,143.9 L 437.42,143.9 Z" />
  <path data-name="Island" d="M 405.42,76.9 L 408.42,75.9 L 411.42,76.9 L 414.42,78.9 L 416.42,81.9 L 418.42,84.9 L 420.42,87.9 L 421.42,90.9 L 422.42,93.9 L 421.42,96.9 L 420.42,99.9 L 418.42,102.9 L 415.42,104.9 L 412.42,105.9 L 409.42,105.9 L 406.42,103.9 L 403.42,101.9 L 402.42,98.9 L 401.42,95.9 L 401.42,92.9 L 401.42,89.9 L 402.42,86.9 L 403.42,83.9 L 404.42,80.9 L 405.42,76.9 Z" />

  <!-- Asia -->
  <path data-name="Turska" d="M 547.42,217.9 L 548.42,220.9 L 552.42,213.9 L 556.42,216.9 L 560.42,218.9 L 564.42,218.9 L 567.42,218.9 L 570.42,216.9 L 573.42,214.9 L 576.42,212.9 L 579.42,210.9 L 582.42,209.9 L 585.42,206.9 L 588.42,204.9 L 591.42,202.9 L 594.42,201.9 L 597.42,202.9 L 600.42,204.9 L 602.42,207.9 L 604.42,210.9 L 606.42,213.9 L 607.42,217.9 L 608.42,221.9 L 607.42,225.9 L 605.42,228.9 L 602.42,231.9 L 599.42,234.9 L 596.42,236.9 L 592.42,238.9 L 588.42,239.9 L 585.42,241.9 L 581.42,242.9 L 577.42,242.9 L 573.42,242.9 L 569.42,240.9 L 566.42,238.9 L 563.42,236.9 L 560.42,233.9 L 557.42,231.9 L 554.42,228.9 L 551.42,225.9 L 548.42,224.9 L 547.42,220.9 L 547.42,217.9 Z" />
  <path data-name="Gruzija" d="M 607.42,217.9 L 610.42,215.9 L 613.42,214.9 L 616.42,215.9 L 619.42,215.9 L 622.42,216.9 L 625.42,217.9 L 624.42,220.9 L 623.42,223.9 L 621.42,225.9 L 618.42,227.9 L 615.42,228.9 L 612.42,229.9 L 609.42,226.9 L 607.42,223.9 L 606.42,220.9 L 607.42,217.9 Z" />
  <path data-name="Jermenija" d="M 625.42,217.9 L 628.42,216.9 L 631.42,215.9 L 634.42,215.9 L 637.42,216.9 L 639.42,219.9 L 640.42,222.9 L 638.42,225.9 L 636.42,227.9 L 633.42,228.9 L 630.42,229.9 L 627.42,230.9 L 624.42,228.9 L 624.42,225.9 L 624.42,220.9 L 625.42,217.9 Z" />
  <path data-name="Azerbejdžan" d="M 638.42,206.9 L 641.42,206.9 L 644.42,207.9 L 647.42,209.9 L 649.42,212.9 L 650.42,215.9 L 650.42,218.9 L 648.42,221.9 L 645.42,224.9 L 642.42,226.9 L 639.42,225.9 L 637.42,222.9 L 634.42,221.9 L 632.42,218.9 L 630.42,215.9 L 631.42,212.9 L 634.42,209.9 L 638.42,206.9 Z" />
  <path data-name="Iran" d="M 631.42,212.9 L 634.42,215.9 L 637.42,216.9 L 639.42,219.9 L 642.42,220.9 L 644.42,223.9 L 647.42,226.9 L 650.42,229.9 L 653.42,232.9 L 656.42,235.9 L 659.42,238.9 L 662.42,241.9 L 665.42,245.9 L 668.42,248.9 L 671.42,251.9 L 674.42,254.9 L 676.42,258.9 L 678.42,261.9 L 679.42,264.9 L 679.42,267.9 L 678.42,270.9 L 676.42,273.9 L 673.42,275.9 L 670.42,276.9 L 667.42,277.9 L 664.42,278.9 L 661.42,279.9 L 658.42,280.9 L 655.42,281.9 L 652.42,281.9 L 649.42,282.9 L 646.42,283.9 L 643.42,284.9 L 640.42,285.9 L 637.42,285.9 L 634.42,286.9 L 632.42,283.9 L 629.42,280.9 L 627.42,277.9 L 625.42,274.9 L 622.42,271.9 L 620.42,268.9 L 618.42,265.9 L 617.42,262.9 L 615.42,259.9 L 613.42,256.9 L 611.42,253.9 L 609.42,250.9 L 607.42,247.9 L 606.42,244.9 L 605.42,241.9 L 603.42,238.9 L 602.42,235.9 L 602.42,231.9 L 605.42,228.9 L 607.42,225.9 L 610.42,227.9 L 613.42,229.9 L 616.42,230.9 L 618.42,227.9 L 621.42,225.9 L 623.42,223.9 L 624.42,220.9 L 628.42,223.9 L 631.42,212.9 Z" />
  <path data-name="Irak" d="M 602.42,235.9 L 603.42,238.9 L 605.42,241.9 L 606.42,244.9 L 607.42,247.9 L 609.42,250.9 L 611.42,253.9 L 613.42,256.9 L 615.42,259.9 L 617.42,262.9 L 618.42,265.9 L 620.42,268.9 L 616.42,271.9 L 613.42,273.9 L 609.42,274.9 L 606.42,275.9 L 603.42,276.9 L 599.42,277.9 L 596.42,278.9 L 593.42,278.9 L 589.42,277.9 L 586.42,275.9 L 584.42,272.9 L 585.42,269.9 L 585.42,266.9 L 586.42,263.9 L 587.42,260.9 L 589.42,257.9 L 591.42,254.9 L 593.42,251.9 L 596.42,248.9 L 598.42,246.9 L 599.42,243.9 L 599.42,240.9 L 599.42,237.9 L 599.42,234.9 L 602.42,231.9 L 602.42,235.9 Z" />
  <path data-name="Sirija" d="M 596.42,236.9 L 599.42,234.9 L 599.42,237.9 L 599.42,240.9 L 599.42,243.9 L 598.42,246.9 L 596.42,248.9 L 593.42,251.9 L 591.42,254.9 L 589.42,257.9 L 587.42,260.9 L 584.42,257.9 L 581.42,255.9 L 578.42,252.9 L 580.42,250.9 L 582.42,247.9 L 584.42,244.9 L 586.42,242.9 L 588.42,239.9 L 592.42,238.9 L 596.42,236.9 Z" />
  <path data-name="Liban" d="M 582.42,247.9 L 585.42,244.9 L 587.42,242.9 L 589.42,245.9 L 590.42,248.9 L 588.42,251.9 L 585.42,253.9 L 583.42,250.9 L 582.42,247.9 Z" />
  <path data-name="Izrael" d="M 583.42,250.9 L 585.42,253.9 L 588.42,251.9 L 590.42,254.9 L 588.42,257.9 L 586.42,260.9 L 584.42,263.9 L 582.42,261.9 L 580.42,259.9 L 580.42,256.9 L 581.42,253.9 L 583.42,250.9 Z" />
  <path data-name="Palestina" d="M 580.42,259.9 L 582.42,261.9 L 584.42,263.9 L 585.42,266.9 L 584.42,269.9 L 581.42,270.9 L 579.42,268.9 L 578.42,266.9 L 578.42,263.9 L 580.42,259.9 Z" />
  <path data-name="Jordan" d="M 585.42,266.9 L 585.42,269.9 L 586.42,272.9 L 589.42,277.9 L 587.42,280.9 L 584.42,282.9 L 581.42,284.9 L 578.42,285.9 L 576.42,283.9 L 576.42,280.9 L 576.42,277.9 L 577.42,274.9 L 578.42,270.9 L 581.42,270.9 L 584.42,269.9 L 585.42,266.9 Z" />
  <path data-name="Saudijska Arabija" d="M 576.42,277.9 L 576.42,280.9 L 576.42,283.9 L 578.42,285.9 L 581.42,284.9 L 584.42,282.9 L 587.42,280.9 L 589.42,277.9 L 593.42,278.9 L 596.42,278.9 L 599.42,277.9 L 603.42,276.9 L 606.42,275.9 L 609.42,274.9 L 613.42,273.9 L 616.42,271.9 L 620.42,268.9 L 622.42,271.9 L 625.42,274.9 L 627.42,277.9 L 629.42,280.9 L 632.42,283.9 L 635.42,286.9 L 635.42,289.9 L 634.42,292.9 L 633.42,295.9 L 631.42,298.9 L 629.42,301.9 L 627.42,304.9 L 624.42,307.9 L 621.42,310.9 L 618.42,313.9 L 615.42,316.9 L 612.42,319.9 L 609.42,322.9 L 606.42,325.9 L 603.42,328.9 L 600.42,330.9 L 597.42,332.9 L 594.42,334.9 L 591.42,335.9 L 588.42,336.9 L 585.42,337.9 L 581.42,338.9 L 578.42,339.9 L 575.42,338.9 L 572.42,337.9 L 569.42,336.9 L 567.42,334.9 L 566.42,331.9 L 565.42,328.9 L 565.42,325.9 L 566.42,322.9 L 567.42,319.9 L 569.42,316.9 L 570.42,313.9 L 571.42,310.9 L 573.42,307.9 L 574.42,304.9 L 575.42,301.9 L 576.42,298.9 L 577.42,295.9 L 578.42,292.9 L 578.42,289.9 L 579.42,286.9 L 576.42,277.9 Z" />
  <path data-name="Kuvajt" d="M 634.42,271.9 L 636.42,268.9 L 639.42,266.9 L 642.42,266.9 L 644.42,269.9 L 643.42,272.9 L 641.42,275.9 L 638.42,277.9 L 635.42,278.9 L 633.42,275.9 L 634.42,271.9 Z" />
  <path data-name="Bahrein" d="M 642.42,283.9 L 644.42,281.9 L 646.42,279.9 L 648.42,282.9 L 648.42,285.9 L 646.42,288.9 L 644.42,286.9 L 642.42,283.9 Z" />
  <path data-name="Katar" d="M 649.42,290.9 L 652.42,289.9 L 654.42,286.9 L 657.42,286.9 L 659.42,288.9 L 659.42,291.9 L 657.42,294.9 L 654.42,296.9 L 652.42,299.9 L 649.42,297.9 L 648.42,294.9 L 649.42,290.9 Z" />
  <path data-name="Ujedinjeni Arapski Emirati" d="M 657.42,286.9 L 660.42,284.9 L 663.42,282.9 L 666.42,281.9 L 669.42,280.9 L 671.42,283.9 L 674.42,286.9 L 675.42,289.9 L 673.42,292.9 L 670.42,294.9 L 667.42,295.9 L 664.42,297.9 L 661.42,299.9 L 658.42,297.9 L 657.42,294.9 L 659.42,291.9 L 659.42,288.9 L 657.42,286.9 Z" />
  <path data-name="Oman" d="M 666.42,296.9 L 669.42,294.9 L 672.42,292.9 L 675.42,289.9 L 678.42,289.9 L 681.42,291.9 L 683.42,294.9 L 684.42,297.9 L 685.42,300.9 L 685.42,303.9 L 684.42,306.9 L 682.42,309.9 L 679.42,312.9 L 676.42,314.9 L 673.42,316.9 L 670.42,317.9 L 667.42,318.9 L 664.42,318.9 L 665.42,315.9 L 666.42,312.9 L 668.42,309.9 L 670.42,307.9 L 672.42,304.9 L 673.42,301.9 L 673.42,298.9 L 666.42,296.9 Z" />
  <path data-name="Jemen" d="M 585.42,337.9 L 588.42,336.9 L 591.42,335.9 L 594.42,334.9 L 597.42,332.9 L 600.42,330.9 L 603.42,328.9 L 606.42,325.9 L 609.42,322.9 L 612.42,319.9 L 615.42,316.9 L 618.42,313.9 L 621.42,310.9 L 624.42,307.9 L 627.42,310.9 L 630.42,313.9 L 632.42,316.9 L 634.42,319.9 L 636.42,322.9 L 637.42,325.9 L 636.42,328.9 L 634.42,331.9 L 631.42,334.9 L 628.42,337.9 L 625.42,339.9 L 622.42,341.9 L 619.42,342.9 L 616.42,344.9 L 613.42,346.9 L 609.42,347.9 L 606.42,348.9 L 603.42,349.9 L 600.42,350.9 L 596.42,351.9 L 593.42,352.9 L 590.42,352.9 L 587.42,351.9 L 584.42,350.9 L 582.42,348.9 L 580.42,346.9 L 580.42,343.9 L 581.42,340.9 L 585.42,337.9 Z" />
  <path data-name="Kazahstan" d="M 619.42,143.9 L 622.42,146.9 L 625.42,149.9 L 628.42,152.9 L 631.42,155.9 L 634.42,158.9 L 637.42,160.9 L 640.42,162.9 L 643.42,165.9 L 646.42,167.9 L 649.42,169.9 L 652.42,172.9 L 655.42,174.9 L 658.42,176.9 L 661.42,178.9 L 664.42,180.9 L 667.42,182.9 L 670.42,184.9 L 673.42,186.9 L 676.42,188.9 L 679.42,191.9 L 681.42,194.9 L 682.42,197.9 L 682.42,200.9 L 681.42,203.9 L 679.42,206.9 L 677.42,209.9 L 674.42,211.9 L 671.42,213.9 L 668.42,215.9 L 665.42,217.9 L 662.42,219.9 L 659.42,221.9 L 656.42,222.9 L 653.42,224.9 L 650.42,225.9 L 647.42,226.9 L 644.42,223.9 L 642.42,220.9 L 639.42,219.9 L 637.42,216.9 L 634.42,215.9 L 631.42,212.9 L 630.42,215.9 L 627.42,216.9 L 624.42,217.9 L 622.42,216.9 L 619.42,215.9 L 616.42,215.9 L 613.42,214.9 L 610.42,215.9 L 607.42,217.9 L 604.42,215.9 L 602.42,212.9 L 599.42,210.9 L 596.42,209.9 L 593.42,208.9 L 590.42,207.9 L 587.42,209.9 L 584.42,211.9 L 581.42,213.9 L 578.42,215.9 L 575.42,217.9 L 572.42,219.9 L 569.42,222.9 L 566.42,224.9 L 563.42,226.9 L 560.42,225.9 L 557.42,224.9 L 555.42,222.9 L 552.42,220.9 L 549.42,218.9 L 547.42,215.9 L 545.42,212.9 L 543.42,209.9 L 543.42,206.9 L 545.42,203.9 L 548.42,201.9 L 551.42,199.9 L 554.42,196.9 L 557.42,194.9 L 560.42,193.9 L 563.42,193.9 L 566.42,195.9 L 569.42,198.9 L 572.42,201.9 L 575.42,204.9 L 578.42,207.9 L 579.42,204.9 L 579.42,201.9 L 580.42,198.9 L 580.42,195.9 L 581.42,192.9 L 582.42,189.9 L 584.42,186.9 L 585.42,183.9 L 587.42,180.9 L 590.42,178.9 L 593.42,176.9 L 596.42,173.9 L 598.42,170.9 L 601.42,168.9 L 604.42,166.9 L 606.42,163.9 L 609.42,161.9 L 612.42,159.9 L 614.42,156.9 L 617.42,154.9 L 619.42,151.9 L 619.42,147.9 L 619.42,143.9 Z" />
  <path data-name="Uzbekistan" d="M 656.42,222.9 L 659.42,221.9 L 662.42,219.9 L 665.42,217.9 L 668.42,215.9 L 670.42,212.9 L 672.42,209.9 L 674.42,207.9 L 676.42,204.9 L 678.42,201.9 L 680.42,198.9 L 683.42,195.9 L 685.42,192.9 L 687.42,189.9 L 690.42,187.9 L 693.42,186.9 L 696.42,187.9 L 698.42,190.9 L 699.42,193.9 L 699.42,196.9 L 698.42,199.9 L 696.42,202.9 L 693.42,204.9 L 690.42,206.9 L 687.42,207.9 L 684.42,209.9 L 681.42,211.9 L 678.42,213.9 L 675.42,214.9 L 672.42,216.9 L 669.42,218.9 L 666.42,219.9 L 663.42,221.9 L 660.42,223.9 L 657.42,224.9 L 656.42,222.9 Z" />
  <path data-name="Turkmenistan" d="M 650.42,225.9 L 653.42,224.9 L 656.42,222.9 L 657.42,224.9 L 660.42,223.9 L 663.42,221.9 L 666.42,219.9 L 669.42,218.9 L 672.42,216.9 L 675.42,214.9 L 678.42,213.9 L 681.42,211.9 L 684.42,209.9 L 687.42,207.9 L 690.42,206.9 L 693.42,204.9 L 696.42,202.9 L 699.42,202.9 L 702.42,204.9 L 704.42,207.9 L 705.42,210.9 L 705.42,213.9 L 704.42,216.9 L 702.42,219.9 L 699.42,221.9 L 696.42,223.9 L 693.42,225.9 L 690.42,226.9 L 687.42,228.9 L 684.42,230.9 L 681.42,232.9 L 678.42,233.9 L 675.42,235.9 L 672.42,236.9 L 669.42,236.9 L 666.42,236.9 L 663.42,236.9 L 660.42,236.9 L 657.42,235.9 L 654.42,235.9 L 651.42,234.9 L 650.42,231.9 L 650.42,228.9 L 650.42,225.9 Z" />
  <path data-name="Kirgistan" d="M 696.42,187.9 L 699.42,186.9 L 702.42,184.9 L 705.42,183.9 L 708.42,181.9 L 711.42,180.9 L 714.42,178.9 L 716.42,176.9 L 719.42,174.9 L 722.42,173.9 L 725.42,174.9 L 728.42,176.9 L 729.42,179.9 L 729.42,182.9 L 728.42,185.9 L 726.42,188.9 L 723.42,190.9 L 720.42,192.9 L 717.42,193.9 L 714.42,194.9 L 711.42,196.9 L 708.42,197.9 L 704.42,196.9 L 701.42,194.9 L 699.42,193.9 L 698.42,190.9 L 696.42,187.9 Z" />
  <path data-name="Tadžikistan" d="M 698.42,199.9 L 701.42,198.9 L 704.42,196.9 L 708.42,197.9 L 711.42,196.9 L 714.42,194.9 L 717.42,193.9 L 720.42,192.9 L 723.42,190.9 L 726.42,193.9 L 729.42,196.9 L 731.42,199.9 L 733.42,202.9 L 735.42,205.9 L 736.42,208.9 L 733.42,211.9 L 730.42,213.9 L 727.42,215.9 L 724.42,216.9 L 721.42,218.9 L 718.42,219.9 L 715.42,220.9 L 712.42,221.9 L 709.42,221.9 L 706.42,220.9 L 703.42,219.9 L 700.42,218.9 L 698.42,216.9 L 697.42,213.9 L 696.42,210.9 L 696.42,207.9 L 696.42,204.9 L 696.42,202.9 L 698.42,199.9 Z" />
  <path data-name="Avganistan" d="M 704.42,207.9 L 707.42,206.9 L 710.42,204.9 L 713.42,203.9 L 716.42,201.9 L 719.42,200.9 L 722.42,198.9 L 725.42,200.9 L 728.42,202.9 L 731.42,204.9 L 734.42,207.9 L 736.42,210.9 L 739.42,213.9 L 741.42,216.9 L 743.42,219.9 L 743.42,222.9 L 743.42,225.9 L 742.42,228.9 L 740.42,231.9 L 738.42,234.9 L 735.42,237.9 L 731.42,239.9 L 728.42,241.9 L 724.42,243.9 L 721.42,245.9 L 717.42,246.9 L 714.42,246.9 L 711.42,246.9 L 708.42,245.9 L 705.42,244.9 L 702.42,243.9 L 699.42,241.9 L 697.42,239.9 L 695.42,236.9 L 694.42,233.9 L 693.42,230.9 L 693.42,227.9 L 694.42,224.9 L 696.42,221.9 L 698.42,218.9 L 700.42,216.9 L 702.42,213.9 L 704.42,210.9 L 705.42,213.9 L 704.42,207.9 Z" />
  <path data-name="Pakistan" d="M 711.42,246.9 L 714.42,246.9 L 717.42,246.9 L 721.42,245.9 L 724.42,243.9 L 728.42,241.9 L 731.42,239.9 L 735.42,237.9 L 738.42,239.9 L 741.42,242.9 L 744.42,245.9 L 747.42,248.9 L 750.42,250.9 L 752.42,253.9 L 755.42,256.9 L 757.42,259.9 L 758.42,262.9 L 759.42,265.9 L 760.42,268.9 L 759.42,271.9 L 756.42,274.9 L 753.42,276.9 L 750.42,278.9 L 747.42,280.9 L 744.42,281.9 L 741.42,282.9 L 738.42,283.9 L 735.42,284.9 L 732.42,284.9 L 729.42,285.9 L 726.42,285.9 L 723.42,286.9 L 720.42,286.9 L 717.42,287.9 L 714.42,287.9 L 711.42,287.9 L 708.42,287.9 L 705.42,286.9 L 703.42,284.9 L 701.42,282.9 L 700.42,279.9 L 699.42,276.9 L 699.42,273.9 L 698.42,270.9 L 698.42,267.9 L 698.42,264.9 L 699.42,261.9 L 701.42,258.9 L 702.42,255.9 L 704.42,253.9 L 707.42,250.9 L 709.42,248.9 L 711.42,246.9 Z" />
  <path data-name="Indija" d="M 735.42,284.9 L 738.42,283.9 L 741.42,282.9 L 744.42,281.9 L 747.42,280.9 L 750.42,278.9 L 753.42,276.9 L 756.42,274.9 L 759.42,271.9 L 762.42,273.9 L 765.42,276.9 L 768.42,279.9 L 771.42,282.9 L 773.42,285.9 L 775.42,288.9 L 776.42,291.9 L 778.42,294.9 L 779.42,297.9 L 780.42,300.9 L 781.42,303.9 L 782.42,306.9 L 782.42,309.9 L 782.42,312.9 L 781.42,315.9 L 779.42,318.9 L 777.42,321.9 L 774.42,324.9 L 771.42,327.9 L 768.42,330.9 L 765.42,332.9 L 762.42,334.9 L 759.42,336.9 L 756.42,338.9 L 753.42,340.9 L 749.42,341.9 L 746.42,342.9 L 743.42,343.9 L 739.42,344.9 L 736.42,344.9 L 733.42,344.9 L 730.42,344.9 L 727.42,344.9 L 724.42,343.9 L 721.42,342.9 L 719.42,340.9 L 717.42,337.9 L 715.42,334.9 L 714.42,331.9 L 713.42,328.9 L 712.42,325.9 L 711.42,322.9 L 711.42,319.9 L 711.42,316.9 L 711.42,313.9 L 711.42,310.9 L 711.42,307.9 L 712.42,304.9 L 713.42,301.9 L 714.42,298.9 L 716.42,295.9 L 718.42,292.9 L 720.42,290.9 L 723.42,289.9 L 726.42,288.9 L 729.42,288.9 L 732.42,287.9 L 735.42,284.9 Z" />
  <path data-name="Nepal" d="M 738.42,253.9 L 741.42,250.9 L 744.42,248.9 L 747.42,247.9 L 750.42,246.9 L 753.42,245.9 L 756.42,244.9 L 759.42,244.9 L 762.42,244.9 L 765.42,244.9 L 767.42,247.9 L 765.42,250.9 L 762.42,253.9 L 759.42,256.9 L 756.42,258.9 L 753.42,259.9 L 750.42,260.9 L 747.42,262.9 L 744.42,262.9 L 741.42,263.9 L 738.42,262.9 L 736.42,259.9 L 737.42,256.9 L 738.42,253.9 Z" />
  <path data-name="Butan" d="M 765.42,247.9 L 768.42,247.9 L 771.42,246.9 L 774.42,245.9 L 777.42,244.9 L 780.42,243.9 L 782.42,246.9 L 784.42,249.9 L 784.42,252.9 L 781.42,255.9 L 778.42,257.9 L 775.42,259.9 L 772.42,260.9 L 769.42,261.9 L 766.42,261.9 L 763.42,260.9 L 760.42,258.9 L 763.42,255.9 L 765.42,253.9 L 767.42,250.9 L 765.42,247.9 Z" />
  <path data-name="Bangladeš" d="M 767.42,261.9 L 770.42,261.9 L 773.42,260.9 L 776.42,259.9 L 779.42,257.9 L 782.42,258.9 L 784.42,261.9 L 785.42,264.9 L 786.42,267.9 L 786.42,270.9 L 784.42,273.9 L 781.42,275.9 L 778.42,277.9 L 775.42,279.9 L 772.42,280.9 L 769.42,281.9 L 766.42,282.9 L 763.42,283.9 L 760.42,282.9 L 758.42,279.9 L 759.42,276.9 L 761.42,273.9 L 764.42,271.9 L 765.42,268.9 L 766.42,265.9 L 768.42,262.9 L 767.42,261.9 Z" />
  <path data-name="Mjanmar" d="M 786.42,267.9 L 789.42,265.9 L 792.42,264.9 L 795.42,262.9 L 798.42,260.9 L 801.42,258.9 L 804.42,260.9 L 807.42,263.9 L 810.42,266.9 L 811.42,269.9 L 813.42,272.9 L 814.42,275.9 L 814.42,278.9 L 814.42,281.9 L 813.42,284.9 L 810.42,287.9 L 807.42,290.9 L 804.42,293.9 L 801.42,295.9 L 798.42,297.9 L 795.42,299.9 L 792.42,301.9 L 789.42,303.9 L 786.42,302.9 L 784.42,299.9 L 783.42,296.9 L 781.42,293.9 L 780.42,290.9 L 779.42,287.9 L 779.42,284.9 L 780.42,281.9 L 782.42,278.9 L 784.42,275.9 L 786.42,270.9 L 786.42,267.9 Z" />
  <path data-name="Kina" d="M 729.42,182.9 L 732.42,179.9 L 735.42,176.9 L 738.42,174.9 L 741.42,172.9 L 744.42,169.9 L 747.42,166.9 L 750.42,165.9 L 753.42,165.9 L 756.42,166.9 L 759.42,168.9 L 762.42,170.9 L 765.42,172.9 L 768.42,174.9 L 771.42,175.9 L 774.42,177.9 L 777.42,178.9 L 780.42,180.9 L 783.42,181.9 L 786.42,183.9 L 789.42,184.9 L 792.42,186.9 L 795.42,187.9 L 798.42,189.9 L 801.42,191.9 L 804.42,193.9 L 807.42,195.9 L 810.42,197.9 L 813.42,199.9 L 816.42,201.9 L 819.42,203.9 L 822.42,205.9 L 825.42,207.9 L 828.42,209.9 L 831.42,211.9 L 834.42,213.9 L 835.42,216.9 L 835.42,219.9 L 834.42,222.9 L 832.42,225.9 L 829.42,228.9 L 826.42,231.9 L 823.42,234.9 L 820.42,236.9 L 817.42,239.9 L 814.42,241.9 L 811.42,243.9 L 808.42,245.9 L 805.42,247.9 L 802.42,249.9 L 799.42,251.9 L 796.42,253.9 L 793.42,255.9 L 790.42,256.9 L 787.42,258.9 L 784.42,259.9 L 780.42,259.9 L 777.42,257.9 L 774.42,255.9 L 771.42,254.9 L 768.42,252.9 L 765.42,250.9 L 762.42,248.9 L 759.42,246.9 L 756.42,245.9 L 753.42,243.9 L 750.42,243.9 L 747.42,242.9 L 744.42,241.9 L 741.42,239.9 L 738.42,237.9 L 736.42,235.9 L 734.42,232.9 L 733.42,229.9 L 732.42,226.9 L 731.42,223.9 L 731.42,220.9 L 730.42,217.9 L 730.42,214.9 L 729.42,211.9 L 729.42,208.9 L 728.42,205.9 L 727.42,202.9 L 726.42,199.9 L 725.42,196.9 L 726.42,193.9 L 727.42,190.9 L 728.42,187.9 L 729.42,185.9 L 729.42,182.9 Z" />
  <path data-name="Mongolija" d="M 731.42,139.9 L 734.42,141.9 L 737.42,144.9 L 740.42,146.9 L 743.42,149.9 L 746.42,151.9 L 749.42,153.9 L 752.42,155.9 L 755.42,157.9 L 758.42,159.9 L 761.42,161.9 L 764.42,163.9 L 767.42,164.9 L 770.42,166.9 L 773.42,167.9 L 776.42,168.9 L 779.42,168.9 L 782.42,169.9 L 785.42,169.9 L 788.42,169.9 L 791.42,168.9 L 794.42,168.9 L 797.42,167.9 L 800.42,166.9 L 803.42,168.9 L 806.42,170.9 L 807.42,173.9 L 808.42,176.9 L 806.42,179.9 L 803.42,182.9 L 800.42,185.9 L 797.42,187.9 L 794.42,188.9 L 791.42,189.9 L 788.42,190.9 L 785.42,191.9 L 782.42,192.9 L 779.42,193.9 L 776.42,193.9 L 773.42,192.9 L 770.42,191.9 L 767.42,190.9 L 764.42,188.9 L 761.42,186.9 L 758.42,184.9 L 755.42,182.9 L 752.42,179.9 L 749.42,177.9 L 746.42,174.9 L 743.42,171.9 L 740.42,169.9 L 737.42,166.9 L 735.42,163.9 L 733.42,160.9 L 731.42,157.9 L 730.42,154.9 L 730.42,151.9 L 730.42,148.9 L 730.42,145.9 L 731.42,142.9 L 731.42,139.9 Z" />
  <path data-name="Severna Koreja" d="M 835.42,219.9 L 838.42,216.9 L 841.42,214.9 L 844.42,213.9 L 847.42,212.9 L 850.42,213.9 L 853.42,215.9 L 855.42,218.9 L 855.42,221.9 L 854.42,224.9 L 851.42,227.9 L 848.42,229.9 L 845.42,231.9 L 842.42,233.9 L 839.42,233.9 L 836.42,231.9 L 834.42,228.9 L 833.42,225.9 L 835.42,222.9 L 835.42,219.9 Z" />
  <path data-name="Južna Koreja" d="M 854.42,224.9 L 857.42,226.9 L 859.42,229.9 L 861.42,232.9 L 862.42,235.9 L 863.42,238.9 L 863.42,241.9 L 862.42,244.9 L 860.42,247.9 L 857.42,249.9 L 854.42,251.9 L 851.42,252.9 L 848.42,252.9 L 845.42,251.9 L 843.42,248.9 L 841.42,246.9 L 840.42,243.9 L 840.42,240.9 L 840.42,237.9 L 842.42,234.9 L 845.42,231.9 L 848.42,229.9 L 851.42,227.9 L 854.42,224.9 Z" />
  <path data-name="Japan" d="M 881.42,203.9 L 884.42,201.9 L 887.42,200.9 L 890.42,199.9 L 893.42,198.9 L 896.42,199.9 L 899.42,201.9 L 901.42,204.9 L 901.42,207.9 L 900.42,210.9 L 897.42,213.9 L 894.42,215.9 L 891.42,217.9 L 888.42,219.9 L 885.42,220.9 L 882.42,219.9 L 880.42,217.9 L 879.42,214.9 L 879.42,211.9 L 880.42,208.9 L 881.42,205.9 L 881.42,203.9 Z" />
  <path data-name="Tajland" d="M 795.42,301.9 L 798.42,297.9 L 801.42,295.9 L 804.42,296.9 L 807.42,299.9 L 810.42,302.9 L 809.42,305.9 L 808.42,308.9 L 806.42,311.9 L 803.42,313.9 L 799.42,315.9 L 796.42,317.9 L 793.42,318.9 L 791.42,315.9 L 790.42,312.9 L 789.42,309.9 L 789.42,306.9 L 791.42,304.9 L 795.42,301.9 Z" />
  <path data-name="Laos" d="M 809.42,290.9 L 812.42,287.9 L 815.42,284.9 L 818.42,282.9 L 821.42,281.9 L 824.42,281.9 L 827.42,282.9 L 829.42,285.9 L 829.42,288.9 L 828.42,291.9 L 826.42,294.9 L 823.42,297.9 L 820.42,300.9 L 817.42,302.9 L 814.42,303.9 L 811.42,304.9 L 808.42,305.9 L 807.42,302.9 L 804.42,296.9 L 807.42,293.9 L 809.42,290.9 Z" />
  <path data-name="Vijetnam" d="M 824.42,281.9 L 827.42,278.9 L 830.42,276.9 L 833.42,275.9 L 836.42,274.9 L 839.42,274.9 L 842.42,274.9 L 844.42,277.9 L 846.42,280.9 L 847.42,283.9 L 847.42,286.9 L 846.42,289.9 L 844.42,292.9 L 841.42,295.9 L 838.42,297.9 L 835.42,299.9 L 832.42,301.9 L 829.42,302.9 L 826.42,302.9 L 823.42,302.9 L 820.42,300.9 L 823.42,297.9 L 826.42,294.9 L 828.42,291.9 L 829.42,288.9 L 829.42,285.9 L 827.42,282.9 L 824.42,281.9 Z" />
  <path data-name="Kambodža" d="M 808.42,308.9 L 811.42,304.9 L 814.42,303.9 L 817.42,302.9 L 820.42,300.9 L 823.42,302.9 L 826.42,302.9 L 829.42,305.9 L 829.42,308.9 L 828.42,311.9 L 826.42,314.9 L 823.42,317.9 L 820.42,318.9 L 817.42,320.9 L 814.42,321.9 L 811.42,321.9 L 808.42,320.9 L 806.42,318.9 L 806.42,316.9 L 805.42,313.9 L 803.42,310.9 L 806.42,311.9 L 808.42,308.9 Z" />
  <path data-name="Malezija" d="M 811.42,325.9 L 814.42,325.9 L 817.42,324.9 L 820.42,323.9 L 823.42,322.9 L 826.42,321.9 L 829.42,322.9 L 832.42,323.9 L 835.42,325.9 L 837.42,328.9 L 838.42,331.9 L 838.42,334.9 L 836.42,337.9 L 833.42,339.9 L 830.42,341.9 L 827.42,342.9 L 824.42,343.9 L 821.42,343.9 L 818.42,342.9 L 815.42,342.9 L 812.42,341.9 L 809.42,339.9 L 807.42,336.9 L 807.42,333.9 L 807.42,330.9 L 809.42,328.9 L 811.42,325.9 Z" />
  <path data-name="Singapur" d="M 824.42,347.9 L 827.42,345.9 L 830.42,345.9 L 833.42,346.9 L 834.42,349.9 L 833.42,352.9 L 830.42,354.9 L 827.42,355.9 L 824.42,354.9 L 822.42,351.9 L 823.42,349.9 L 824.42,347.9 Z" />
  <path data-name="Brunej" d="M 841.42,331.9 L 844.42,329.9 L 847.42,328.9 L 850.42,329.9 L 852.42,332.9 L 851.42,335.9 L 849.42,338.9 L 846.42,339.9 L 843.42,339.9 L 841.42,337.9 L 840.42,335.9 L 841.42,331.9 Z" />
  <path data-name="Indonezija" d="M 821.42,354.9 L 824.42,354.9 L 827.42,355.9 L 830.42,357.9 L 833.42,359.9 L 835.42,362.9 L 838.42,365.9 L 841.42,367.9 L 844.42,369.9 L 847.42,371.9 L 850.42,373.9 L 852.42,376.9 L 855.42,378.9 L 858.42,380.9 L 861.42,382.9 L 864.42,383.9 L 867.42,384.9 L 870.42,385.9 L 873.42,386.9 L 876.42,387.9 L 879.42,387.9 L 882.42,387.9 L 885.42,387.9 L 882.42,390.9 L 879.42,393.9 L 876.42,395.9 L 873.42,396.9 L 870.42,398.9 L 867.42,399.9 L 864.42,400.9 L 861.42,401.9 L 858.42,402.9 L 855.42,403.9 L 852.42,403.9 L 849.42,404.9 L 846.42,404.9 L 843.42,404.9 L 840.42,404.9 L 837.42,403.9 L 834.42,402.9 L 832.42,399.9 L 830.42,396.9 L 829.42,393.9 L 828.42,390.9 L 827.42,387.9 L 826.42,384.9 L 825.42,381.9 L 824.42,378.9 L 823.42,375.9 L 823.42,372.9 L 823.42,369.9 L 822.42,366.9 L 821.42,363.9 L 821.42,360.9 L 821.42,357.9 L 821.42,354.9 Z" />
  <path data-name="Istočni Timor" d="M 884.42,399.9 L 887.42,398.9 L 890.42,397.9 L 893.42,397.9 L 896.42,398.9 L 899.42,400.9 L 899.42,403.9 L 898.42,406.9 L 895.42,408.9 L 892.42,410.9 L 889.42,411.9 L 886.42,412.9 L 883.42,412.9 L 881.42,409.9 L 880.42,406.9 L 879.42,403.9 L 880.42,401.9 L 884.42,399.9 Z" />
  <path data-name="Papua Nova Gvineja" d="M 922.42,335.9 L 925.42,335.9 L 928.42,336.9 L 931.42,338.9 L 934.42,340.9 L 936.42,343.9 L 938.42,346.9 L 939.42,349.9 L 940.42,352.9 L 939.42,355.9 L 937.42,358.9 L 934.42,361.9 L 931.42,364.9 L 928.42,366.9 L 925.42,369.9 L 922.42,371.9 L 919.42,373.9 L 916.42,375.9 L 913.42,376.9 L 910.42,378.9 L 907.42,378.9 L 904.42,378.9 L 901.42,377.9 L 898.42,375.9 L 897.42,372.9 L 898.42,369.9 L 899.42,366.9 L 901.42,363.9 L 903.42,360.9 L 906.42,358.9 L 909.42,356.9 L 912.42,353.9 L 915.42,351.9 L 918.42,349.9 L 919.42,346.9 L 921.42,343.9 L 922.42,340.9 L 922.42,336.9 L 922.42,335.9 Z" />
  <path data-name="Filipini" d="M 866.42,265.9 L 869.42,263.9 L 872.42,261.9 L 875.42,259.9 L 878.42,258.9 L 881.42,258.9 L 884.42,259.9 L 886.42,262.9 L 886.42,265.9 L 886.42,268.9 L 884.42,271.9 L 881.42,273.9 L 878.42,275.9 L 875.42,276.9 L 872.42,276.9 L 869.42,275.9 L 867.42,273.9 L 866.42,270.9 L 866.42,267.9 L 866.42,265.9 Z" />

  <!-- Africa -->
  <path data-name="Egipat" d="M 570.42,251.9 L 573.42,248.9 L 576.42,246.9 L 579.42,243.9 L 582.42,242.9 L 585.42,241.9 L 588.42,239.9 L 592.42,238.9 L 596.42,236.9 L 598.42,239.9 L 599.42,242.9 L 599.42,245.9 L 599.42,248.9 L 598.42,251.9 L 596.42,254.9 L 594.42,257.9 L 592.42,260.9 L 589.42,263.9 L 586.42,266.9 L 583.42,269.9 L 580.42,271.9 L 577.42,274.9 L 574.42,275.9 L 571.42,275.9 L 568.42,273.9 L 566.42,271.9 L 565.42,268.9 L 564.42,265.9 L 565.42,262.9 L 566.42,259.9 L 568.42,257.9 L 570.42,254.9 L 570.42,251.9 Z" />
  <path data-name="Libija" d="M 566.42,259.9 L 569.42,258.9 L 572.42,257.9 L 575.42,255.9 L 578.42,254.9 L 581.42,252.9 L 584.42,251.9 L 586.42,254.9 L 588.42,257.9 L 589.42,260.9 L 589.42,263.9 L 589.42,266.9 L 588.42,269.9 L 587.42,272.9 L 585.42,275.9 L 583.42,278.9 L 580.42,280.9 L 577.42,281.9 L 574.42,283.9 L 571.42,284.9 L 568.42,285.9 L 565.42,286.9 L 562.42,286.9 L 559.42,285.9 L 556.42,284.9 L 553.42,283.9 L 550.42,282.9 L 547.42,280.9 L 544.42,279.9 L 541.42,278.9 L 538.42,276.9 L 535.42,275.9 L 533.42,272.9 L 532.42,269.9 L 532.42,266.9 L 532.42,263.9 L 534.42,260.9 L 537.42,259.9 L 540.42,257.9 L 543.42,255.9 L 546.42,255.9 L 549.42,255.9 L 552.42,256.9 L 555.42,257.9 L 558.42,258.9 L 561.42,258.9 L 564.42,258.9 L 566.42,259.9 Z" />
  <path data-name="Tunis" d="M 533.42,239.9 L 536.42,238.9 L 539.42,237.9 L 542.42,237.9 L 544.42,239.9 L 546.42,242.9 L 548.42,245.9 L 549.42,248.9 L 547.42,251.9 L 544.42,253.9 L 541.42,254.9 L 538.42,254.9 L 535.42,254.9 L 532.42,253.9 L 529.42,251.9 L 527.42,248.9 L 527.42,245.9 L 528.42,242.9 L 530.42,240.9 L 533.42,239.9 Z" />
  <path data-name="Alžir" d="M 528.42,242.9 L 531.42,245.9 L 533.42,248.9 L 534.42,251.9 L 534.42,254.9 L 534.42,257.9 L 534.42,260.9 L 532.42,263.9 L 532.42,266.9 L 532.42,269.9 L 533.42,272.9 L 531.42,275.9 L 528.42,277.9 L 525.42,279.9 L 522.42,280.9 L 519.42,282.9 L 516.42,283.9 L 513.42,284.9 L 510.42,285.9 L 507.42,286.9 L 504.42,287.9 L 501.42,288.9 L 498.42,289.9 L 495.42,289.9 L 492.42,289.9 L 489.42,289.9 L 486.42,288.9 L 483.42,286.9 L 482.42,283.9 L 482.42,280.9 L 483.42,277.9 L 484.42,274.9 L 486.42,271.9 L 489.42,269.9 L 492.42,266.9 L 495.42,265.9 L 498.42,263.9 L 501.42,261.9 L 504.42,259.9 L 507.42,258.9 L 510.42,256.9 L 513.42,254.9 L 516.42,252.9 L 519.42,251.9 L 522.42,249.9 L 524.42,246.9 L 526.42,244.9 L 527.42,245.9 L 527.42,248.9 L 529.42,251.9 L 532.42,253.9 L 535.42,254.9 L 538.42,254.9 L 541.42,254.9 L 544.42,253.9 L 547.42,251.9 L 549.42,248.9 L 549.42,245.9 L 550.42,242.9 L 551.42,239.9 L 552.42,236.9 L 552.42,233.9 L 551.42,230.9 L 550.42,228.9 L 547.42,226.9 L 544.42,225.9 L 541.42,226.9 L 538.42,228.9 L 535.42,230.9 L 533.42,233.9 L 530.42,236.9 L 528.42,239.9 L 528.42,242.9 Z" />
  <path data-name="Maroko" d="M 484.42,250.9 L 487.42,249.9 L 490.42,248.9 L 493.42,247.9 L 496.42,246.9 L 499.42,246.9 L 502.42,245.9 L 505.42,244.9 L 508.42,244.9 L 511.42,245.9 L 514.42,247.9 L 516.42,250.9 L 517.42,253.9 L 517.42,256.9 L 516.42,259.9 L 514.42,262.9 L 511.42,265.9 L 508.42,266.9 L 505.42,268.9 L 502.42,269.9 L 499.42,270.9 L 496.42,270.9 L 493.42,269.9 L 490.42,268.9 L 487.42,266.9 L 485.42,264.9 L 483.42,261.9 L 482.42,258.9 L 482.42,255.9 L 483.42,252.9 L 484.42,250.9 Z" />
  <path data-name="Zapadna Sahara" d="M 472.42,260.9 L 475.42,259.9 L 478.42,258.9 L 481.42,257.9 L 483.42,261.9 L 485.42,264.9 L 487.42,266.9 L 490.42,268.9 L 490.42,271.9 L 489.42,274.9 L 488.42,277.9 L 486.42,279.9 L 483.42,282.9 L 480.42,283.9 L 477.42,284.9 L 474.42,284.9 L 471.42,285.9 L 468.42,285.9 L 465.42,286.9 L 462.42,286.9 L 459.42,286.9 L 456.42,285.9 L 454.42,284.9 L 452.42,281.9 L 451.42,278.9 L 451.42,275.9 L 452.42,272.9 L 454.42,269.9 L 457.42,268.9 L 460.42,266.9 L 463.42,265.9 L 466.42,264.9 L 469.42,262.9 L 472.42,260.9 Z" />
  <path data-name="Mauritanija" d="M 454.42,269.9 L 457.42,268.9 L 460.42,266.9 L 463.42,265.9 L 466.42,264.9 L 469.42,262.9 L 472.42,260.9 L 475.42,262.9 L 478.42,264.9 L 480.42,267.9 L 482.42,270.9 L 483.42,273.9 L 484.42,276.9 L 484.42,279.9 L 483.42,282.9 L 480.42,283.9 L 477.42,284.9 L 474.42,284.9 L 471.42,285.9 L 468.42,285.9 L 465.42,286.9 L 462.42,286.9 L 459.42,286.9 L 456.42,286.9 L 453.42,287.9 L 450.42,287.9 L 447.42,287.9 L 444.42,287.9 L 442.42,285.9 L 440.42,283.9 L 439.42,280.9 L 439.42,277.9 L 440.42,274.9 L 442.42,271.9 L 445.42,269.9 L 448.42,267.9 L 451.42,269.9 L 454.42,269.9 Z" />
  <path data-name="Mali" d="M 484.42,279.9 L 486.42,282.9 L 489.42,284.9 L 492.42,285.9 L 495.42,287.9 L 498.42,289.9 L 498.42,292.9 L 498.42,295.9 L 498.42,298.9 L 497.42,301.9 L 496.42,304.9 L 494.42,307.9 L 492.42,310.9 L 489.42,312.9 L 486.42,314.9 L 483.42,315.9 L 480.42,316.9 L 477.42,317.9 L 474.42,317.9 L 471.42,316.9 L 468.42,314.9 L 466.42,312.9 L 464.42,310.9 L 463.42,307.9 L 463.42,304.9 L 464.42,301.9 L 466.42,298.9 L 468.42,295.9 L 471.42,293.9 L 474.42,292.9 L 477.42,290.9 L 480.42,288.9 L 483.42,286.9 L 483.42,282.9 L 484.42,279.9 Z" />
  <path data-name="Niger" d="M 498.42,289.9 L 501.42,288.9 L 504.42,287.9 L 507.42,286.9 L 510.42,285.9 L 513.42,284.9 L 516.42,283.9 L 519.42,282.9 L 522.42,280.9 L 525.42,281.9 L 527.42,284.9 L 529.42,287.9 L 530.42,290.9 L 531.42,293.9 L 532.42,296.9 L 532.42,299.9 L 532.42,302.9 L 531.42,305.9 L 529.42,308.9 L 526.42,310.9 L 523.42,312.9 L 520.42,314.9 L 517.42,315.9 L 514.42,316.9 L 511.42,316.9 L 508.42,316.9 L 505.42,316.9 L 502.42,316.9 L 499.42,315.9 L 498.42,312.9 L 498.42,309.9 L 498.42,306.9 L 498.42,303.9 L 498.42,300.9 L 498.42,298.9 L 498.42,295.9 L 498.42,292.9 L 498.42,289.9 Z" />
  <path data-name="Nigerija" d="M 497.42,315.9 L 500.42,316.9 L 503.42,316.9 L 506.42,315.9 L 509.42,315.9 L 512.42,315.9 L 515.42,315.9 L 518.42,314.9 L 521.42,314.9 L 524.42,313.9 L 526.42,316.9 L 527.42,319.9 L 528.42,322.9 L 529.42,325.9 L 529.42,328.9 L 528.42,331.9 L 526.42,334.9 L 523.42,336.9 L 520.42,338.9 L 517.42,340.9 L 514.42,341.9 L 511.42,342.9 L 508.42,343.9 L 505.42,343.9 L 502.42,342.9 L 499.42,341.9 L 496.42,339.9 L 494.42,337.9 L 493.42,334.9 L 492.42,331.9 L 492.42,328.9 L 493.42,325.9 L 494.42,322.9 L 495.42,319.9 L 497.42,317.9 L 497.42,315.9 Z" />
  <path data-name="Čad" d="M 532.42,299.9 L 535.42,297.9 L 538.42,295.9 L 541.42,294.9 L 544.42,292.9 L 546.42,295.9 L 549.42,297.9 L 551.42,300.9 L 552.42,303.9 L 553.42,306.9 L 553.42,309.9 L 552.42,312.9 L 551.42,315.9 L 549.42,318.9 L 547.42,321.9 L 544.42,323.9 L 541.42,325.9 L 538.42,327.9 L 535.42,329.9 L 532.42,329.9 L 529.42,329.9 L 526.42,327.9 L 524.42,325.9 L 523.42,322.9 L 522.42,319.9 L 521.42,316.9 L 521.42,313.9 L 522.42,310.9 L 524.42,307.9 L 527.42,305.9 L 529.42,303.9 L 531.42,301.9 L 532.42,299.9 Z" />
  <path data-name="Sudan" d="M 553.42,274.9 L 556.42,273.9 L 559.42,271.9 L 562.42,270.9 L 565.42,268.9 L 567.42,271.9 L 569.42,274.9 L 572.42,276.9 L 574.42,279.9 L 576.42,282.9 L 578.42,285.9 L 580.42,288.9 L 582.42,291.9 L 584.42,294.9 L 586.42,297.9 L 586.42,300.9 L 586.42,303.9 L 585.42,306.9 L 583.42,309.9 L 581.42,312.9 L 578.42,315.9 L 576.42,318.9 L 573.42,320.9 L 570.42,323.9 L 567.42,325.9 L 564.42,327.9 L 561.42,330.9 L 558.42,332.9 L 555.42,333.9 L 552.42,334.9 L 549.42,331.9 L 547.42,329.9 L 544.42,327.9 L 542.42,324.9 L 540.42,322.9 L 539.42,319.9 L 539.42,316.9 L 539.42,313.9 L 539.42,310.9 L 540.42,307.9 L 542.42,304.9 L 544.42,301.9 L 546.42,298.9 L 549.42,297.9 L 551.42,294.9 L 552.42,291.9 L 554.42,288.9 L 556.42,285.9 L 558.42,282.9 L 558.42,279.9 L 556.42,277.9 L 554.42,275.9 L 553.42,274.9 Z" />
  <path data-name="Južni Sudan" d="M 549.42,331.9 L 552.42,334.9 L 555.42,333.9 L 558.42,332.9 L 561.42,330.9 L 564.42,327.9 L 567.42,325.9 L 570.42,323.9 L 573.42,320.9 L 576.42,323.9 L 578.42,326.9 L 580.42,329.9 L 582.42,332.9 L 583.42,335.9 L 583.42,338.9 L 583.42,341.9 L 583.42,344.9 L 581.42,347.9 L 578.42,349.9 L 575.42,350.9 L 572.42,351.9 L 569.42,352.9 L 566.42,352.9 L 563.42,351.9 L 560.42,350.9 L 557.42,348.9 L 554.42,347.9 L 551.42,345.9 L 549.42,343.9 L 547.42,341.9 L 546.42,338.9 L 546.42,335.9 L 547.42,332.9 L 549.42,331.9 Z" />
  <path data-name="Eritreja" d="M 585.42,259.9 L 588.42,257.9 L 591.42,256.9 L 594.42,255.9 L 597.42,254.9 L 600.42,255.9 L 603.42,257.9 L 605.42,260.9 L 606.42,263.9 L 604.42,266.9 L 601.42,269.9 L 598.42,271.9 L 595.42,273.9 L 592.42,274.9 L 589.42,275.9 L 586.42,275.9 L 583.42,273.9 L 582.42,271.9 L 581.42,268.9 L 582.42,265.9 L 584.42,262.9 L 585.42,259.9 Z" />
  <path data-name="Džibuti" d="M 601.42,269.9 L 604.42,266.9 L 607.42,265.9 L 610.42,264.9 L 613.42,264.9 L 615.42,267.9 L 616.42,270.9 L 616.42,273.9 L 615.42,276.9 L 613.42,279.9 L 610.42,281.9 L 607.42,282.9 L 604.42,283.9 L 601.42,283.9 L 598.42,282.9 L 597.42,279.9 L 597.42,276.9 L 598.42,273.9 L 601.42,272.9 L 601.42,269.9 Z" />
  <path data-name="Etiopija" d="M 586.42,297.9 L 589.42,295.9 L 592.42,293.9 L 595.42,291.9 L 598.42,290.9 L 601.42,288.9 L 604.42,286.9 L 607.42,285.9 L 610.42,283.9 L 613.42,282.9 L 616.42,280.9 L 619.42,282.9 L 622.42,284.9 L 624.42,287.9 L 626.42,290.9 L 628.42,293.9 L 629.42,296.9 L 630.42,299.9 L 630.42,302.9 L 629.42,305.9 L 628.42,308.9 L 626.42,311.9 L 624.42,314.9 L 621.42,316.9 L 618.42,318.9 L 615.42,319.9 L 612.42,321.9 L 609.42,321.9 L 606.42,322.9 L 603.42,322.9 L 600.42,321.9 L 598.42,319.9 L 595.42,317.9 L 593.42,315.9 L 591.42,313.9 L 590.42,310.9 L 589.42,307.9 L 588.42,304.9 L 587.42,301.9 L 586.42,297.9 Z" />
  <path data-name="Somalija" d="M 629.42,296.9 L 632.42,294.9 L 635.42,293.9 L 638.42,292.9 L 641.42,291.9 L 644.42,290.9 L 647.42,290.9 L 650.42,289.9 L 652.42,292.9 L 654.42,295.9 L 656.42,298.9 L 656.42,301.9 L 655.42,304.9 L 653.42,307.9 L 651.42,310.9 L 649.42,313.9 L 646.42,316.9 L 644.42,319.9 L 641.42,321.9 L 638.42,323.9 L 635.42,325.9 L 632.42,327.9 L 629.42,329.9 L 626.42,330.9 L 623.42,331.9 L 620.42,331.9 L 618.42,329.9 L 615.42,327.9 L 613.42,325.9 L 612.42,322.9 L 609.42,321.9 L 612.42,321.9 L 615.42,319.9 L 618.42,318.9 L 621.42,316.9 L 624.42,314.9 L 626.42,311.9 L 628.42,308.9 L 629.42,305.9 L 630.42,302.9 L 630.42,299.9 L 629.42,296.9 Z" />
  <path data-name="Kenija" d="M 583.42,344.9 L 586.42,342.9 L 589.42,340.9 L 592.42,339.9 L 595.42,338.9 L 598.42,336.9 L 601.42,335.9 L 604.42,333.9 L 607.42,332.9 L 610.42,330.9 L 613.42,329.9 L 616.42,328.9 L 618.42,329.9 L 620.42,331.9 L 623.42,331.9 L 625.42,334.9 L 627.42,337.9 L 628.42,340.9 L 629.42,343.9 L 629.42,346.9 L 628.42,349.9 L 626.42,352.9 L 623.42,354.9 L 620.42,356.9 L 617.42,357.9 L 614.42,358.9 L 611.42,359.9 L 608.42,360.9 L 605.42,360.9 L 602.42,360.9 L 599.42,360.9 L 596.42,359.9 L 594.42,357.9 L 591.42,355.9 L 589.42,353.9 L 587.42,351.9 L 585.42,349.9 L 584.42,347.9 L 583.42,344.9 Z" />
  <path data-name="Uganda" d="M 578.42,349.9 L 581.42,347.9 L 583.42,344.9 L 586.42,347.9 L 589.42,350.9 L 591.42,353.9 L 594.42,355.9 L 596.42,358.9 L 594.42,361.9 L 591.42,364.9 L 588.42,365.9 L 585.42,367.9 L 582.42,368.9 L 579.42,368.9 L 577.42,366.9 L 575.42,364.9 L 574.42,361.9 L 573.42,358.9 L 574.42,355.9 L 576.42,353.9 L 578.42,351.9 L 578.42,349.9 Z" />
  <path data-name="Ruanda" d="M 588.42,365.9 L 591.42,364.9 L 594.42,364.9 L 597.42,365.9 L 598.42,368.9 L 597.42,371.9 L 594.42,373.9 L 591.42,374.9 L 588.42,373.9 L 586.42,371.9 L 585.42,368.9 L 588.42,365.9 Z" />
  <path data-name="Burundi" d="M 585.42,367.9 L 588.42,365.9 L 588.42,368.9 L 587.42,371.9 L 587.42,374.9 L 585.42,377.9 L 582.42,379.9 L 579.42,380.9 L 576.42,380.9 L 574.42,378.9 L 573.42,375.9 L 573.42,372.9 L 575.42,370.9 L 577.42,368.9 L 579.42,368.9 L 582.42,368.9 L 585.42,367.9 Z" />
  <path data-name="Tanzanija" d="M 596.42,359.9 L 599.42,359.9 L 602.42,360.9 L 605.42,360.9 L 608.42,360.9 L 611.42,359.9 L 614.42,358.9 L 617.42,357.9 L 620.42,356.9 L 622.42,359.9 L 624.42,362.9 L 625.42,365.9 L 625.42,368.9 L 625.42,371.9 L 624.42,374.9 L 622.42,377.9 L 620.42,380.9 L 617.42,382.9 L 614.42,384.9 L 611.42,385.9 L 608.42,386.9 L 605.42,387.9 L 602.42,388.9 L 599.42,389.9 L 596.42,390.9 L 593.42,390.9 L 590.42,390.9 L 588.42,388.9 L 585.42,387.9 L 583.42,384.9 L 582.42,382.9 L 580.42,379.9 L 579.42,377.9 L 579.42,374.9 L 578.42,371.9 L 579.42,368.9 L 582.42,368.9 L 585.42,367.9 L 588.42,365.9 L 591.42,364.9 L 594.42,361.9 L 596.42,359.9 Z" />
  <path data-name="Demokratska Republika Kongo" d="M 573.42,375.9 L 576.42,373.9 L 579.42,374.9 L 580.42,377.9 L 582.42,379.9 L 584.42,382.9 L 586.42,384.9 L 589.42,387.9 L 592.42,389.9 L 594.42,392.9 L 596.42,395.9 L 597.42,398.9 L 599.42,401.9 L 599.42,404.9 L 599.42,407.9 L 598.42,410.9 L 597.42,413.9 L 595.42,416.9 L 592.42,418.9 L 589.42,421.9 L 586.42,423.9 L 583.42,424.9 L 580.42,425.9 L 577.42,425.9 L 574.42,424.9 L 572.42,423.9 L 569.42,421.9 L 567.42,419.9 L 565.42,417.9 L 562.42,415.9 L 560.42,413.9 L 558.42,411.9 L 557.42,408.9 L 555.42,406.9 L 554.42,403.9 L 552.42,400.9 L 552.42,397.9 L 552.42,394.9 L 552.42,391.9 L 553.42,388.9 L 555.42,385.9 L 557.42,382.9 L 559.42,379.9 L 562.42,377.9 L 565.42,374.9 L 568.42,372.9 L 570.42,369.9 L 573.42,372.9 L 573.42,375.9 Z" />
  <path data-name="Republika Kongo" d="M 555.42,374.9 L 558.42,373.9 L 561.42,371.9 L 564.42,369.9 L 567.42,368.9 L 570.42,366.9 L 573.42,364.9 L 575.42,367.9 L 575.42,370.9 L 573.42,372.9 L 570.42,372.9 L 570.42,369.9 L 568.42,372.9 L 565.42,374.9 L 562.42,377.9 L 559.42,379.9 L 557.42,382.9 L 554.42,384.9 L 551.42,385.9 L 548.42,386.9 L 546.42,384.9 L 544.42,382.9 L 543.42,380.9 L 542.42,377.9 L 542.42,374.9 L 543.42,371.9 L 545.42,369.9 L 548.42,367.9 L 551.42,369.9 L 553.42,371.9 L 555.42,374.9 Z" />
  <path data-name="Gabon" d="M 544.42,367.9 L 547.42,365.9 L 550.42,363.9 L 553.42,362.9 L 556.42,360.9 L 559.42,361.9 L 561.42,364.9 L 562.42,367.9 L 562.42,370.9 L 561.42,373.9 L 559.42,376.9 L 557.42,378.9 L 554.42,380.9 L 551.42,382.9 L 548.42,383.9 L 545.42,384.9 L 542.42,383.9 L 540.42,381.9 L 539.42,379.9 L 539.42,376.9 L 540.42,373.9 L 541.42,370.9 L 544.42,369.9 L 544.42,367.9 Z" />
  <path data-name="Ekvatorijalna Gvineja" d="M 535.42,368.9 L 538.42,367.9 L 541.42,367.9 L 544.42,367.9 L 544.42,369.9 L 541.42,370.9 L 539.42,372.9 L 536.42,373.9 L 533.42,373.9 L 531.42,371.9 L 530.42,368.9 L 532.42,366.9 L 535.42,368.9 Z" />
  <path data-name="Centralnoafrička Republika" d="M 574.42,335.9 L 577.42,333.9 L 580.42,332.9 L 583.42,330.9 L 585.42,333.9 L 588.42,335.9 L 590.42,338.9 L 592.42,341.9 L 594.42,344.9 L 596.42,347.9 L 596.42,350.9 L 594.42,353.9 L 591.42,356.9 L 588.42,358.9 L 585.42,360.9 L 582.42,362.9 L 579.42,363.9 L 576.42,364.9 L 573.42,364.9 L 570.42,363.9 L 567.42,362.9 L 564.42,360.9 L 562.42,358.9 L 560.42,356.9 L 558.42,354.9 L 557.42,352.9 L 556.42,349.9 L 556.42,347.9 L 557.42,344.9 L 559.42,341.9 L 561.42,339.9 L 564.42,337.9 L 567.42,336.9 L 570.42,335.9 L 574.42,335.9 Z" />
  <path data-name="Kamerun" d="M 529.42,341.9 L 532.42,339.9 L 535.42,339.9 L 538.42,338.9 L 541.42,337.9 L 544.42,337.9 L 547.42,338.9 L 550.42,339.9 L 553.42,341.9 L 556.42,342.9 L 557.42,345.9 L 557.42,348.9 L 556.42,351.9 L 555.42,354.9 L 554.42,357.9 L 553.42,360.9 L 551.42,362.9 L 548.42,365.9 L 546.42,367.9 L 543.42,369.9 L 540.42,370.9 L 537.42,370.9 L 534.42,370.9 L 531.42,369.9 L 528.42,367.9 L 526.42,365.9 L 524.42,363.9 L 523.42,360.9 L 523.42,358.9 L 523.42,355.9 L 523.42,353.9 L 523.42,350.9 L 525.42,347.9 L 527.42,345.9 L 529.42,343.9 L 529.42,341.9 Z" />
  <path data-name="Benin" d="M 498.42,341.9 L 501.42,340.9 L 504.42,339.9 L 507.42,339.9 L 509.42,342.9 L 511.42,345.9 L 512.42,348.9 L 511.42,351.9 L 509.42,354.9 L 507.42,356.9 L 504.42,358.9 L 501.42,359.9 L 498.42,359.9 L 496.42,357.9 L 495.42,354.9 L 494.42,351.9 L 495.42,348.9 L 496.42,345.9 L 498.42,343.9 L 498.42,341.9 Z" />
  <path data-name="Togo" d="M 494.42,342.9 L 496.42,339.9 L 499.42,342.9 L 498.42,345.9 L 498.42,348.9 L 497.42,351.9 L 495.42,354.9 L 493.42,357.9 L 491.42,359.9 L 489.42,357.9 L 488.42,354.9 L 488.42,351.9 L 489.42,348.9 L 490.42,345.9 L 492.42,343.9 L 494.42,342.9 Z" />
  <path data-name="Gana" d="M 484.42,341.9 L 487.42,340.9 L 489.42,342.9 L 492.42,343.9 L 490.42,345.9 L 489.42,348.9 L 488.42,351.9 L 488.42,354.9 L 489.42,357.9 L 486.42,359.9 L 483.42,360.9 L 480.42,360.9 L 477.42,359.9 L 476.42,357.9 L 475.42,354.9 L 475.42,351.9 L 476.42,348.9 L 478.42,345.9 L 480.42,343.9 L 482.42,341.9 L 484.42,341.9 Z" />
  <path data-name="Obala Slonovače" d="M 470.42,345.9 L 473.42,344.9 L 476.42,343.9 L 479.42,342.9 L 482.42,341.9 L 480.42,343.9 L 478.42,345.9 L 476.42,348.9 L 475.42,351.9 L 475.42,354.9 L 476.42,357.9 L 474.42,359.9 L 471.42,360.9 L 468.42,360.9 L 465.42,360.9 L 462.42,359.9 L 459.42,358.9 L 457.42,357.9 L 456.42,355.9 L 455.42,353.9 L 455.42,351.9 L 456.42,349.9 L 458.42,347.9 L 460.42,345.9 L 463.42,343.9 L 466.42,343.9 L 468.42,344.9 L 470.42,345.9 Z" />
  <path data-name="Burkina Faso" d="M 470.42,329.9 L 473.42,328.9 L 476.42,328.9 L 479.42,327.9 L 482.42,327.9 L 485.42,327.9 L 488.42,328.9 L 490.42,331.9 L 492.42,333.9 L 493.42,336.9 L 494.42,339.9 L 492.42,342.9 L 489.42,342.9 L 487.42,340.9 L 484.42,341.9 L 482.42,341.9 L 479.42,342.9 L 476.42,343.9 L 473.42,344.9 L 470.42,345.9 L 468.42,344.9 L 468.42,341.9 L 468.42,338.9 L 469.42,335.9 L 469.42,332.9 L 470.42,329.9 Z" />
  <path data-name="Liberija" d="M 450.42,353.9 L 453.42,352.9 L 456.42,351.9 L 458.42,353.9 L 459.42,356.9 L 460.42,359.9 L 458.42,362.9 L 455.42,364.9 L 452.42,365.9 L 449.42,365.9 L 447.42,363.9 L 445.42,361.9 L 444.42,359.9 L 444.42,357.9 L 445.42,355.9 L 447.42,353.9 L 450.42,353.9 Z" />
  <path data-name="Sijera Leone" d="M 443.42,351.9 L 446.42,351.9 L 448.42,349.9 L 450.42,348.9 L 452.42,348.9 L 454.42,349.9 L 455.42,351.9 L 456.42,353.9 L 454.42,355.9 L 451.42,356.9 L 449.42,358.9 L 446.42,359.9 L 444.42,357.9 L 442.42,356.9 L 441.42,354.9 L 442.42,352.9 L 443.42,351.9 Z" />
  <path data-name="Gvineja" d="M 440.42,343.9 L 443.42,343.9 L 446.42,342.9 L 448.42,341.9 L 450.42,341.9 L 452.42,342.9 L 454.42,344.9 L 455.42,347.9 L 455.42,350.9 L 454.42,353.9 L 452.42,353.9 L 450.42,353.9 L 448.42,352.9 L 446.42,351.9 L 443.42,351.9 L 441.42,349.9 L 440.42,347.9 L 438.42,345.9 L 439.42,343.9 L 440.42,343.9 Z" />
  <path data-name="Gvineja Bisao" d="M 430.42,342.9 L 433.42,341.9 L 435.42,339.9 L 438.42,338.9 L 440.42,341.9 L 440.42,343.9 L 439.42,345.9 L 437.42,347.9 L 435.42,348.9 L 432.42,349.9 L 430.42,350.9 L 428.42,348.9 L 427.42,346.9 L 427.42,344.9 L 428.42,343.9 L 430.42,342.9 Z" />
  <path data-name="Senegal" d="M 427.42,336.9 L 430.42,335.9 L 433.42,334.9 L 435.42,333.9 L 437.42,333.9 L 439.42,335.9 L 440.42,337.9 L 440.42,339.9 L 438.42,341.9 L 436.42,343.9 L 434.42,345.9 L 431.42,346.9 L 429.42,346.9 L 427.42,345.9 L 425.42,344.9 L 424.42,342.9 L 423.42,340.9 L 423.42,338.9 L 425.42,336.9 L 427.42,336.9 Z" />
  <path data-name="Gambija" d="M 425.42,339.9 L 427.42,338.9 L 429.42,338.9 L 431.42,339.9 L 431.42,341.9 L 429.42,342.9 L 427.42,343.9 L 425.42,343.9 L 423.42,342.9 L 423.42,340.9 L 425.42,339.9 Z" />
  <path data-name="Zambija" d="M 567.42,419.9 L 570.42,418.9 L 573.42,417.9 L 576.42,415.9 L 579.42,414.9 L 581.42,417.9 L 584.42,419.9 L 586.42,422.9 L 588.42,425.9 L 589.42,428.9 L 590.42,431.9 L 590.42,434.9 L 591.42,437.9 L 591.42,440.9 L 590.42,443.9 L 587.42,446.9 L 584.42,448.9 L 581.42,449.9 L 578.42,450.9 L 575.42,450.9 L 572.42,450.9 L 569.42,449.9 L 567.42,447.9 L 565.42,445.9 L 564.42,443.9 L 563.42,440.9 L 562.42,438.9 L 562.42,436.9 L 562.42,434.9 L 563.42,432.9 L 564.42,430.9 L 565.42,428.9 L 566.42,426.9 L 566.42,424.9 L 566.42,421.9 L 567.42,419.9 Z" />
  <path data-name="Malavi" d="M 586.42,429.9 L 589.42,428.9 L 591.42,431.9 L 591.42,434.9 L 592.42,437.9 L 592.42,440.9 L 592.42,443.9 L 591.42,446.9 L 589.42,449.9 L 587.42,452.9 L 584.42,454.9 L 582.42,456.9 L 579.42,458.9 L 577.42,456.9 L 577.42,454.9 L 577.42,451.9 L 578.42,449.9 L 580.42,446.9 L 582.42,444.9 L 583.42,441.9 L 584.42,438.9 L 585.42,435.9 L 586.42,432.9 L 586.42,429.9 Z" />
  <path data-name="Mozambik" d="M 590.42,443.9 L 593.42,441.9 L 596.42,440.9 L 599.42,438.9 L 601.42,441.9 L 603.42,444.9 L 604.42,447.9 L 605.42,450.9 L 606.42,453.9 L 606.42,456.9 L 606.42,459.9 L 605.42,462.9 L 604.42,465.9 L 602.42,468.9 L 599.42,471.9 L 596.42,473.9 L 593.42,475.9 L 590.42,477.9 L 587.42,478.9 L 584.42,478.9 L 582.42,476.9 L 580.42,474.9 L 578.42,472.9 L 577.42,470.9 L 577.42,468.9 L 577.42,466.9 L 578.42,464.9 L 579.42,462.9 L 581.42,460.9 L 583.42,458.9 L 585.42,456.9 L 587.42,454.9 L 590.42,451.9 L 591.42,449.9 L 592.42,446.9 L 590.42,443.9 Z" />
  <path data-name="Zimbabve" d="M 567.42,447.9 L 570.42,445.9 L 573.42,444.9 L 576.42,443.9 L 578.42,446.9 L 580.42,449.9 L 581.42,452.9 L 582.42,455.9 L 582.42,458.9 L 581.42,461.9 L 578.42,464.9 L 575.42,466.9 L 572.42,467.9 L 570.42,465.9 L 568.42,463.9 L 566.42,461.9 L 564.42,459.9 L 563.42,457.9 L 563.42,455.9 L 564.42,453.9 L 566.42,451.9 L 567.42,449.9 L 567.42,447.9 Z" />
  <path data-name="Bocvana" d="M 560.42,455.9 L 563.42,453.9 L 566.42,451.9 L 568.42,454.9 L 570.42,457.9 L 572.42,459.9 L 574.42,462.9 L 575.42,465.9 L 575.42,468.9 L 574.42,471.9 L 572.42,474.9 L 569.42,476.9 L 566.42,478.9 L 563.42,479.9 L 560.42,481.9 L 557.42,482.9 L 554.42,482.9 L 551.42,481.9 L 549.42,479.9 L 548.42,476.9 L 547.42,474.9 L 548.42,471.9 L 549.42,469.9 L 551.42,466.9 L 553.42,464.9 L 556.42,461.9 L 558.42,458.9 L 559.42,455.9 L 560.42,455.9 Z" />
  <path data-name="Namibija" d="M 536.42,463.9 L 539.42,461.9 L 542.42,459.9 L 545.42,458.9 L 548.42,458.9 L 551.42,458.9 L 554.42,458.9 L 556.42,461.9 L 558.42,464.9 L 559.42,467.9 L 560.42,470.9 L 560.42,473.9 L 559.42,476.9 L 558.42,479.9 L 555.42,481.9 L 553.42,483.9 L 550.42,485.9 L 547.42,487.9 L 544.42,488.9 L 541.42,490.9 L 538.42,490.9 L 535.42,490.9 L 532.42,489.9 L 529.42,487.9 L 527.42,485.9 L 526.42,483.9 L 525.42,481.9 L 525.42,479.9 L 526.42,477.9 L 528.42,474.9 L 530.42,472.9 L 532.42,469.9 L 534.42,466.9 L 536.42,463.9 Z" />
  <path data-name="Angola" d="M 550.42,397.9 L 553.42,395.9 L 556.42,394.9 L 559.42,392.9 L 562.42,391.9 L 565.42,390.9 L 566.42,393.9 L 566.42,396.9 L 566.42,399.9 L 565.42,402.9 L 563.42,405.9 L 561.42,408.9 L 559.42,411.9 L 557.42,414.9 L 554.42,417.9 L 551.42,419.9 L 548.42,421.9 L 545.42,423.9 L 542.42,425.9 L 540.42,422.9 L 539.42,419.9 L 538.42,416.9 L 537.42,413.9 L 537.42,410.9 L 538.42,407.9 L 540.42,404.9 L 542.42,402.9 L 545.42,399.9 L 548.42,397.9 L 550.42,397.9 Z" />
  <path data-name="Južnoafrička Republika" d="M 554.42,482.9 L 557.42,480.9 L 560.42,480.9 L 563.42,479.9 L 566.42,478.9 L 569.42,476.9 L 571.42,479.9 L 573.42,482.9 L 575.42,485.9 L 577.42,488.9 L 578.42,491.9 L 578.42,494.9 L 577.42,497.9 L 575.42,500.9 L 573.42,503.9 L 570.42,506.9 L 567.42,508.9 L 564.42,510.9 L 561.42,512.9 L 558.42,513.9 L 555.42,514.9 L 552.42,515.9 L 549.42,515.9 L 546.42,514.9 L 544.42,512.9 L 542.42,510.9 L 541.42,508.9 L 540.42,506.9 L 539.42,504.9 L 538.42,502.9 L 539.42,500.9 L 541.42,498.9 L 543.42,496.9 L 545.42,494.9 L 547.42,492.9 L 548.42,490.9 L 550.42,487.9 L 552.42,484.9 L 554.42,482.9 Z" />
  <path data-name="Svazilend" d="M 573.42,494.9 L 576.42,493.9 L 578.42,493.9 L 581.42,494.9 L 582.42,497.9 L 582.42,500.9 L 580.42,503.9 L 577.42,504.9 L 574.42,504.9 L 572.42,503.9 L 570.42,501.9 L 570.42,498.9 L 572.42,496.9 L 573.42,494.9 Z" />
  <path data-name="Lesoto" d="M 559.42,508.9 L 562.42,506.9 L 565.42,505.9 L 568.42,504.9 L 571.42,505.9 L 573.42,507.9 L 575.42,509.9 L 575.42,512.9 L 574.42,515.9 L 571.42,517.9 L 568.42,518.9 L 565.42,519.9 L 562.42,519.9 L 559.42,518.9 L 558.42,516.9 L 557.42,514.9 L 558.42,512.9 L 559.42,510.9 L 559.42,508.9 Z" />

  <!-- Australia and Oceania -->
  <path data-name="Australija" d="M 863.42,333.9 L 866.42,331.9 L 869.42,329.9 L 872.42,327.9 L 875.42,325.9 L 878.42,324.9 L 881.42,322.9 L 884.42,321.9 L 887.42,320.9 L 890.42,319.9 L 893.42,318.9 L 896.42,317.9 L 899.42,317.9 L 902.42,317.9 L 905.42,318.9 L 908.42,319.9 L 911.42,320.9 L 914.42,322.9 L 917.42,324.9 L 920.42,326.9 L 922.42,329.9 L 924.42,332.9 L 926.42,335.9 L 928.42,338.9 L 929.42,341.9 L 930.42,344.9 L 931.42,347.9 L 931.42,350.9 L 930.42,353.9 L 929.42,356.9 L 927.42,359.9 L 925.42,362.9 L 922.42,365.9 L 919.42,368.9 L 916.42,370.9 L 913.42,373.9 L 910.42,375.9 L 907.42,378.9 L 904.42,380.9 L 901.42,382.9 L 898.42,384.9 L 895.42,386.9 L 892.42,387.9 L 889.42,389.9 L 886.42,390.9 L 883.42,391.9 L 880.42,392.9 L 877.42,392.9 L 874.42,392.9 L 871.42,391.9 L 868.42,390.9 L 866.42,388.9 L 864.42,386.9 L 863.42,384.9 L 862.42,382.9 L 861.42,380.9 L 860.42,378.9 L 860.42,376.9 L 859.42,374.9 L 859.42,372.9 L 859.42,370.9 L 859.42,368.9 L 859.42,366.9 L 860.42,364.9 L 860.42,362.9 L 861.42,360.9 L 861.42,358.9 L 861.42,356.9 L 861.42,354.9 L 861.42,352.9 L 861.42,350.9 L 861.42,348.9 L 861.42,346.9 L 861.42,344.9 L 861.42,342.9 L 861.42,340.9 L 861.42,338.9 L 862.42,336.9 L 863.42,333.9 Z" />
  <path data-name="Novi Zeland" d="M 950.42,397.9 L 953.42,395.9 L 956.42,393.9 L 959.42,392.9 L 962.42,391.9 L 965.42,390.9 L 968.42,390.9 L 971.42,391.9 L 973.42,393.9 L 975.42,395.9 L 976.42,398.9 L 976.42,401.9 L 974.42,404.9 L 972.42,407.9 L 969.42,410.9 L 966.42,413.9 L 963.42,415.9 L 960.42,417.9 L 957.42,419.9 L 954.42,420.9 L 951.42,421.9 L 948.42,422.9 L 945.42,422.9 L 942.42,421.9 L 940.42,419.9 L 939.42,417.9 L 938.42,415.9 L 939.42,413.9 L 940.42,411.9 L 942.42,409.9 L 944.42,407.9 L 946.42,405.9 L 948.42,403.9 L 949.42,401.9 L 950.42,399.9 L 950.42,397.9 Z" />
  <path data-name="Fidži" d="M 982.42,346.9 L 985.42,345.9 L 987.42,345.9 L 990.42,344.9 L 992.42,347.9 L 992.42,350.9 L 990.42,352.9 L 988.42,354.9 L 985.42,355.9 L 983.42,356.9 L 980.42,357.9 L 978.42,356.9 L 976.42,355.9 L 975.42,353.9 L 975.42,351.9 L 976.42,349.9 L 978.42,347.9 L 980.42,347.9 L 982.42,346.9 Z" />
  <path data-name="Samoa" d="M 996.42,328.9 L 997.42,327.9 L 998.42,326.9 L 999.42,326.9 L 999.42,328.9 L 998.42,330.9 L 997.42,332.9 L 996.42,333.9 L 995.42,332.9 L 994.42,331.9 L 994.42,330.9 L 995.42,329.9 L 996.42,328.9 Z" />
  <path data-name="Tonga" d="M 993.42,356.9 L 994.42,355.9 L 995.42,355.9 L 996.42,356.9 L 996.42,358.9 L 995.42,359.9 L 994.42,360.9 L 993.42,359.9 L 992.42,358.9 L 993.42,357.9 L 993.42,356.9 Z" />
  <path data-name="Vanuatu" d="M 982.42,362.9 L 983.42,361.9 L 984.42,361.9 L 985.42,361.9 L 986.42,362.9 L 986.42,364.9 L 985.42,365.9 L 984.42,366.9 L 983.42,366.9 L 982.42,365.9 L 981.42,364.9 L 981.42,363.9 L 982.42,362.9 Z" />
  <path data-name="Solomonski Ostrva" d="M 970.42,341.9 L 971.42,340.9 L 972.42,340.9 L 973.42,340.9 L 974.42,341.9 L 974.42,343.9 L 973.42,344.9 L 972.42,345.9 L 971.42,345.9 L 970.42,344.9 L 969.42,343.9 L 969.42,342.9 L 970.42,341.9 Z" />
</svg>
