
<?xml version="1.0" encoding="UTF-8" standalone="no"?>
<!-- Created for MapSVG plugin: http://mapsvg.com -->
<svg
   xmlns:mapsvg="http://mapsvg.com"
   xmlns:dc="http://purl.org/dc/elements/1.1/"
   xmlns:rdf="http://www.w3.org/1999/02/22-rdf-syntax-ns#"
   xmlns:svg="http://www.w3.org/2000/svg"
   xmlns="http://www.w3.org/2000/svg"
   mapsvg:geoViewBox="-169.110266 83.600842 190.486279 -58.508473"
   width="1000"
   height="500"
   viewBox="0 0 1000 500">
 
  <path
     d="m 479.68275,331.6274 -0.077,0.025 -0.258,0.155 -0.147,0.054 -0.134,0.027 -0.105,-0.011 -0.058,-0.091 0.006,-0.139 -0.024,-0.124 -0.02,-0.067 0.038,-0.181 0.086,-0.097 0.119,-0.08 0.188,0.029 0.398,0.116 0.083,0.109 10e-4,0.072 -0.073,0.119 z"
     title="Andorra"
     id="AD" 
     data-name="Andora" />
  <path
     d="m 632.89475,388.8674 0.184,0.251 0.026,1.701 0.042,0.121 -0.098,0.018 -0.11,0.129 -0.129,0.199 -0.177,0.103 -0.142,0.116 -0.134,0.144 -0.12,0.031 -0.155,-0.183 -0.107,-0.187 0.026,-0.041 0.075,-0.013 0.028,-0.097 -0.045,-0.14 -0.105,-0.053 -0.132,-0.004 -0.127,0.063 -0.135,0.124 -0.076,0.133 -0.011,0.267 0.035,0.3 -10e-4,0.146 -0.074,0.181 -0.026,0.266 0.053,0.206 0.048,0.123 0.005,0.104 -0.126,0.328 0.109,0.062 0.361,0.023 0.106,0.222 0.072,0.152 -0.02,0.09 -0.256,0.067 -0.322,0.074 -0.231,-0.021 -0.418,0.1 -0.223,0.154 0.065,0.096 0.077,0.074 0.035,0.203 -0.065,0.288 -0.118,0.279 -0.147,0.348 -0.17,0.399 -0.233,0.6 -0.197,0.471 -0.021,0.339 0.005,0.221 -0.022,0.441 -0.187,0.243 -0.042,0.007 -0.223,-0.029 -0.075,-0.01 -0.213,-0.028 -0.33,-0.043 -0.429,-0.057 -0.507,-0.066 -0.565,-0.075 -0.604,-0.08 -0.625,-0.082 -0.624,-0.082 -0.605,-0.08 -0.565,-0.074 -0.507,-0.067 -0.428,-0.057 -0.33,-0.043 -0.213,-0.028 -0.075,-0.01 -0.236,-0.031 -0.127,-0.164 -0.154,-0.198 -0.155,-0.199 -0.154,-0.199 -0.154,-0.199 -0.154,-0.199 -0.154,-0.199 -0.154,-0.199 -0.154,-0.199 -0.154,-0.2 -0.154,-0.199 -0.155,-0.2 -0.154,-0.2 -0.154,-0.2 -0.154,-0.2 -0.154,-0.2 -0.154,-0.2 -0.104,-0.134 -0.057,-0.151 -0.011,-0.396 0,-0.087 0.104,-0.16 0.05,0.114 0.116,0.155 0.197,-0.038 0.092,0.026 0.068,0.549 0.145,0.195 0.176,0.078 0.597,0.043 0.371,-0.074 0.731,-0.358 0.384,-0.129 1.062,0.022 0.851,0.149 1.325,0.088 0.257,-0.023 0.715,-0.288 0.438,-0.254 0.261,-0.073 0.172,-0.246 0.113,-0.32 0.101,-0.209 0.129,-0.1 0.122,-0.178 0.099,-0.289 0.246,-0.292 0.986,-0.711 0.576,-0.602 0.051,-0.195 0.313,-0.292 0.251,-0.32 1.175,-0.916 0.235,-0.379 0.139,-0.425 0.017,-0.03 0.101,-0.018 0.144,0.064 0.015,0.318 -0.053,0.3 -0.006,0.318 -0.021,0.172 0.109,0.141 0.186,0.061 0.081,-0.007 0.048,-0.071 z m -0.046,1.283 0.017,-0.133 -0.029,-0.069 -0.12,-0.009 -0.05,0.115 -0.017,0.165 0.083,0.014 0.116,-0.083 z m -5.096,2.438 -0.025,0.06 -0.079,-0.005 -0.198,-0.054 -0.064,-0.086 0.124,-0.103 0.055,-0.005 0.079,0.108 0.108,0.085 z m -3.181,0.564 -0.208,0.017 -0.188,-0.116 0.397,-0.155 0.107,-0.07 0.116,-0.143 0.093,0.123 -0.103,0.193 -0.073,0.083 -0.141,0.068 z m -2.008,-0.091 -0.047,0.022 -0.05,-0.165 0.003,-0.052 0.129,-0.075 0.079,0.135 -0.114,0.135 z m 3.679,0.34 10e-4,0.104 -0.285,-0.03 -0.076,0.054 -0.234,-0.03 -0.229,-0.075 0.155,-0.125 0.404,-0.147 0.168,0.134 0.096,0.115 z"
     title="United Arab Emirates"
     id="AE" 
     data-name="Ujedinjeni Arapski Emirati" />
  <path
     d="m 685.07675,350.8434 -0.144,0.023 -0.204,-0.084 -0.08,-0.128 -0.034,-0.018 -0.162,0.084 -0.309,0.106 -0.524,0.277 0.012,0.071 0.341,0.281 0.08,0.093 0.042,0.029 -0.309,0.135 -0.664,0.304 -0.437,0.248 -0.104,0.009 -0.264,-0.104 -0.39,-0.124 -0.104,0.002 -0.9,0.021 -0.827,0.046 -0.344,0.06 -0.639,0.057 -0.402,0.02 -0.257,0.096 -0.281,0.126 -0.292,0.082 -0.217,0.027 -0.261,0.118 -0.172,0.234 -0.491,0.346 -0.276,0.167 -0.139,0.189 -0.158,0.018 -0.27,-0.034 -0.209,0.204 -0.231,0.292 -0.423,0.423 -0.225,0.171 -0.134,0.276 0.099,0.143 0.344,0.214 0.154,0.202 0.084,0.16 0.157,0.41 0.1,0.403 0.148,0.174 0.043,0.295 0.038,0.181 -0.081,0.129 -0.074,0.143 0,0.136 0.089,0.14 0.078,0.124 0.043,0.099 -0.053,0.11 -0.157,0.168 -0.08,0.172 -0.174,0.287 -0.272,0.196 -0.18,0.142 -0.191,0.3 -0.316,0.333 -0.133,0.278 -0.139,0.153 -0.143,0.082 0.037,0.15 0.124,0.187 0.205,0.209 -0.009,0.325 -0.01,0.234 0.007,0.283 -0.112,0.238 -0.57,0.228 -0.546,0.1 -0.669,0.006 -0.253,-0.036 -0.202,-0.05 -0.726,-0.256 -0.295,0.151 -0.061,0.369 0.53,0.598 0.217,0.333 0.241,0.556 0.18,0.286 -0.064,0.268 -0.48,0.304 -0.477,0.285 -0.608,0.059 -0.382,0.102 -0.185,0.147 -0.136,0.623 -0.137,0.228 0.003,0.271 -0.129,0.307 -0.195,0.197 -0.137,0.322 0.043,0.609 0.064,1.03 -0.259,0.324 -0.292,0.328 -0.308,0.234 -0.293,0.108 -0.243,-0.04 -0.192,-0.202 -0.114,-0.17 -0.212,-0.142 -0.216,0.029 -0.217,0.13 -0.347,-0.043 -0.296,-0.13 -0.15,0.014 -0.086,0.131 -0.317,0.28 -0.778,0.425 -0.318,0.031 -0.136,0.106 0.054,0.174 0.139,0.142 0.243,0.1 0.012,0.116 -0.214,0.101 -0.183,0.115 -0.403,0.141 -0.465,0.055 -0.48,-0.082 -0.247,-0.187 -0.292,-0.018 -0.266,0.137 -0.275,0.226 -0.3,0.484 -0.08,0.085 -0.081,0.077 -0.196,0.104 -0.281,0.17 -0.141,0.356 -0.169,0.633 0.04,0.34 0.013,0.589 -0.066,0.413 -0.122,0.271 0.024,0.213 0.186,0.242 -0.075,0.157 -0.156,0.174 -0.151,0.097 -0.605,0.183 -0.829,0.249 -0.548,0.16 -0.815,0.238 -0.238,0.058 -0.496,0.021 -0.257,-0.036 -0.348,-0.01 -0.512,0.009 -0.357,0.065 -0.358,0.119 -0.264,0.15 -0.152,0.148 -0.054,0.071 -0.359,-0.122 -1.131,-0.218 -3.063,0.288 -0.289,-0.055 -1.045,-0.337 -1.347,-0.434 -0.833,-0.269 -1.069,-0.352 0.732,-0.87 0.638,-0.76 0.64,-0.764 0.63,-0.755 0.075,-0.265 0.01,-0.519 -0.166,-0.695 -0.267,-0.317 -0.881,-0.128 -0.661,-0.097 -0.721,-0.105 -0.092,-0.039 -0.082,-0.543 0.035,-0.242 -0.047,-0.469 0.007,-0.362 0.104,-0.595 0.006,-0.269 -0.333,-1.161 -0.186,-0.645 -0.19,-0.667 -0.041,-0.213 -0.004,-0.263 0.442,-0.62 0.137,-0.135 0.259,-0.309 0.162,-0.165 -0.028,-0.113 -0.282,-0.065 -0.426,-0.006 -0.227,-0.094 -0.177,-0.169 -0.07,-0.246 0.116,-0.437 -0.116,-0.851 0.237,-0.422 0.204,-0.295 0.692,-0.042 -0.24,-0.334 -0.116,-0.194 -0.074,-0.056 -0.028,-0.089 0.037,-0.09 0.177,-0.034 0.12,-0.112 0.195,-0.157 0.102,-0.068 0.018,-0.191 0.093,-0.134 0.14,-0.169 0.111,-0.192 -0.028,-0.225 0.102,-0.27 0.047,-0.17 0.074,-0.147 -0.065,-0.214 -0.056,-0.181 -0.018,-0.215 0.111,-0.057 0.14,-0.079 0.027,-0.17 0.074,-0.215 0.056,-0.171 0.093,-0.135 0.01,-0.137 -0.056,-0.227 0.231,-0.034 0.093,0.125 0.124,0.162 0.339,0.302 0.22,0.088 0.277,0.044 0.341,-0.041 0.272,-0.057 0.128,0.015 0.297,0.219 0.347,0.307 0.111,0.137 0.052,0.209 0.102,0.062 0.222,-0.207 0.214,-0.068 0.197,0.039 0.217,0.023 0.218,-0.076 0.097,-0.055 0.379,-0.268 0.344,-0.204 0.214,-0.125 0.077,-0.42 0.099,-0.239 0.141,-0.139 -0.052,-0.173 -0.059,-0.132 -0.06,-0.179 0.06,-0.095 0.137,-0.042 0.344,0 0.605,-0.189 0.504,-0.189 0.466,-0.154 0.212,-0.025 0.201,0.026 0.092,-0.045 0.025,-0.147 0.114,-0.155 0.259,-0.126 0.487,-0.267 0.43,-0.397 0.153,-0.302 0.104,-0.441 0.201,-0.682 0.222,-0.749 0.082,-0.331 0.094,-0.255 0.38,-0.215 0.388,-0.156 0.601,-0.031 0.705,-0.016 0.149,-0.411 0.093,-0.35 0.117,-0.181 0.171,-0.147 0.06,-0.029 0.38,0.215 0.583,0.329 0.679,0.164 0.341,0.082 0.142,-0.013 0.857,-0.08 0.677,0.128 0.355,0.35 0.349,0.089 0.342,-0.169 0.212,-0.031 0.082,0.109 0.17,0.046 0.26,-0.017 0.15,0.097 0.016,0.097 0.02,0.112 0.192,0.266 0.347,0.323 0.308,0.078 0.405,-0.251 0.137,0.029 0.067,-0.081 0.041,-0.183 0.245,-0.172 0.448,-0.161 0.254,-0.144 0.091,-0.119 0.151,-0.034 0.165,0.036 0.118,-0.045 0.041,-0.113 0.047,-0.049 0.084,-0.04 0.075,-0.02 0.136,0.031 0.251,0.206 0.366,0.38 0.238,0.174 0.109,-0.029 0.14,-0.117 0.171,-0.202 0.042,-0.292 -0.085,-0.381 0.058,-0.308 0.203,-0.234 0.375,-0.144 0.547,-0.055 0.336,0.033 0.124,0.121 0.168,0.066 0.211,0.013 0.194,-0.137 0.175,-0.289 0.01,-0.357 -0.155,-0.427 0.042,-0.136 0.067,-0.059 0.21,-0.155 0.293,-0.321 0.283,-0.414 0.273,-0.508 0.337,-0.314 0.401,-0.121 0.486,0.138 0.573,0.396 0.215,0.486 -0.14,0.577 -0.012,0.316 0.116,0.059 0.196,-0.016 0.275,-0.09 0.18,-0.005 0.085,0.082 -0.005,0.162 -0.096,0.243 -0.115,0.681 -0.071,0.588 -0.071,0.577 -0.061,0.506 0.109,0.394 0.166,0.594 0.187,0.392 0.191,0.125 0.192,0.045 0.191,-0.035 0.393,-0.252 0.593,-0.468 0.576,-0.288 0.838,-0.162 0.281,-0.503 0.388,-0.333 0.886,-0.495 0.481,-0.19 0.277,-0.032 0.346,0.089 0.079,0.032 0.068,0.024 0.179,0.041 0.037,0.151 -0.047,0.163 -0.191,0.134 -0.061,0.104 0.073,0.078 0.27,0.027 0.559,-0.181 0.362,-0.116 0.251,-0.046 0.101,-0.151 0.158,-0.152 0.251,-0.011 0.269,0.081 0.223,0.047 0.379,-0.043 0.2,0.132 0.28,0.249 0.126,0.155 z"
     title="Afghanistan"
     id="AF" 
     data-name="Avganistan" />
  <path
     d="m 301.68975,414.7024 -0.09,0.116 -0.313,-0.047 -0.063,-0.145 -0.014,-0.102 0.196,-0.207 0.221,0.088 0.085,0.098 0.063,0.02 -10e-4,0.083 -0.024,0.061 -0.06,0.035 z m -0.087,-1.572 -0.042,0.077 -0.229,-0.139 -0.07,-0.261 0.007,-0.055 0.039,-0.029 0.091,0.05 0.121,0.019 0.077,0.085 0.006,0.253 z"
     title="Antigua and Barbuda"
     id="AG" 
     data-name="Antigva i Barbuda" />
  <path
     d="m 298.08375,411.2344 -0.446,0.148 0.018,-0.085 0.358,-0.203 0.13,0.014 z"
     title="Anguilla"
     id="AI" 
     data-name="Angvila" />
  <path
     d="m 531.20475,331.4604 0.111,0.086 0.231,0.374 0.153,0.33 0.303,0.114 0.168,0.128 0.217,0.195 0.104,0.195 0.148,0.597 0.017,0.36 -0.043,0.164 -0.036,0.043 -0.135,0.584 0.032,0.297 -10e-4,0.196 -0.114,0.077 -0.076,0.123 0.123,0.484 -0.015,0.207 0.006,0.236 0.221,0.538 0.131,0.166 0.116,0.079 0.15,0.494 0.088,0.085 0.363,-0.047 0.178,0.055 0.071,0.117 0.016,0.08 -0.024,0.276 0.09,0.212 0.121,0.218 0,0.133 -0.082,0.218 -0.145,0.253 -0.192,0.098 -0.212,0.082 -0.102,0.197 -0.051,0.209 -0.095,0.155 -0.058,0.17 -0.091,0.346 -0.021,0.125 -0.143,0.127 -0.222,0.052 -0.2,0.011 -0.134,0.059 -0.069,0.118 -0.127,0.095 -0.076,0.042 0,0.105 0.092,0.219 0.105,0.178 0.003,0.142 -0.052,0.04 -0.163,-0.018 -0.034,0.052 -0.018,0.16 -0.043,0.135 -0.067,0.083 -0.116,0.09 -0.213,-0.029 -0.2,-0.136 -0.104,-0.042 -0.06,0.004 -0.016,-0.333 -0.087,-0.259 -0.316,-0.625 -1.031,-0.608 -0.243,-0.274 -0.106,-0.231 -0.107,-0.218 0.102,-0.006 0.101,0.055 0.129,0.067 0.053,-0.109 -0.056,-0.239 -0.266,-0.558 -0.02,-0.154 0.13,-0.468 0.217,-0.527 -0.014,-0.64 0.067,-0.485 -0.075,-0.315 -0.036,-0.386 0.159,-0.515 0.137,-0.127 0.084,-0.164 0.005,-0.55 -0.307,-0.258 -0.353,-0.048 0.008,-0.187 0.044,-0.297 -0.025,-0.099 0.026,-0.17 -0.086,-0.226 -0.14,-0.164 0.135,-0.289 0.198,-0.351 0.184,-0.278 0.223,-0.29 0.149,-0.278 0.159,-0.241 0.138,-0.073 0.068,0.051 0.037,0.105 -0.009,0.31 0.047,0.107 0.095,0.079 0.201,-0.039 0.222,-0.077 0.3,-0.164 z"
     title="Albania"
     id="AL" 
     data-name="Albanija" />

  <!-- Add more paths as needed (the data is quite long) -->

  <!-- North America -->
  <path data-name="Kanada" d="M200 100 L250 100 L300 120 L320 110 L340 120 L280 140 L270 160 L240 170 L210 150 L180 130 L200 100" />
  <path data-name="Sjedinjene Američke Države" d="M180 130 L210 150 L240 170 L250 190 L230 210 L210 215 L180 210 L150 200 L140 180 L150 160 L180 130" />
  <path data-name="Meksiko" d="M150 200 L180 210 L210 215 L200 240 L180 250 L160 240 L140 220 L150 200" />
  
  <!-- Central America -->
  <path data-name="Gvatemala" d="M180 250 L190 245 L195 250 L185 255" />
  <path data-name="Belize" d="M185 245 L187 243 L189 245 L187 247" />
  <path data-name="Salvador" d="M185 255 L190 253 L195 255 L190 257" />
  <path data-name="Honduras" d="M190 245 L195 243 L200 245 L195 250" />
  <path data-name="Nikaragva" d="M190 255 L195 250 L200 252 L195 257" />
  <path data-name="Kostarika" d="M195 257 L200 255 L205 257 L200 260" />
  <path data-name="Panama" d="M200 260 L205 257 L210 260 L205 263" />
  
  <!-- South America -->
  <path data-name="Kolumbija" d="M205 263 L210 260 L220 270 L215 290 L205 295 L200 285 L203 275" />
  <path data-name="Venecuela" d="M220 270 L240 265 L245 270 L225 280 L215 290" />
  <path data-name="Gvajana" d="M245 270 L250 265 L255 270 L250 275" />
  <path data-name="Surinam" d="M250 270 L255 265 L260 270 L255 275" />
  <path data-name="Francuska Gvajana" d="M255 270 L260 265 L265 270 L260 275" />
  <path data-name="Brazil" d="M225 280 L250 275 L270 280 L290 290 L295 310 L280 330 L265 335 L250 330 L240 310 L225 300" />
  <path data-name="Ekvador" d="M205 295 L215 290 L220 295 L210 300" />
  <path data-name="Peru" d="M210 300 L220 295 L240 310 L230 320 L215 315" />
  <path data-name="Bolivija" d="M230 320 L240 310 L250 330 L240 340 L230 330" />
  <path data-name="Paragvaj" d="M250 330 L265 335 L260 345 L245 340" />
  <path data-name="Urugvaj" d="M260 345 L270 340 L275 345 L265 350" />
  <path data-name="Argentina" d="M240 340 L245 340 L260 345 L265 350 L260 370 L250 380 L240 370 L235 350" />
  <path data-name="Čile" d="M235 350 L240 340 L230 330 L225 340 L230 360 L240 370 L235 350" />
  
  <!-- Europe -->
  <path data-name="Srbija" d="M525 235 L532 230 L538 232 L543 240 L535 243 L528 240 Z" />
  <path data-name="Hrvatska" d="M510 230 L525 235 L527 240 L515 245 L505 238 Z" />
  <path data-name="Bosna i Hercegovina" d="M515 245 L527 240 L535 243 L530 250 L522 252 Z" />
  <path data-name="Crna Gora" d="M530 250 L535 243 L543 240 L545 245 L538 250 Z" />
  <path data-name="Bugarska" d="M545 235 L550 233 L560 236 L560 248 L550 245 Z" />
  <path data-name="Severna Makedonija" d="M538 250 L545 245 L550 245 L550 253 L540 253 Z" />
  <path data-name="Kosovo" d="M535 243 L538 238 L543 240 L540 244 Z" />
  <path data-name="Albanija" d="M530 253 L538 250 L540 253 L535 257 Z" />
  <path data-name="Grčka" d="M540 253 L550 253 L558 265 L540 270 L535 257 Z" />
  <path data-name="Rumunija" d="M538 232 L550 233 L560 228 L555 223 L545 227 Z" />
  <path data-name="Mađarska" d="M520 225 L532 230 L538 232 L532 220 L525 220 Z" />
  <path data-name="Austrija" d="M505 220 L520 225 L525 220 L515 210 L505 215 Z" />
  <path data-name="Slovenija" d="M505 220 L510 230 L505 238 L500 230 L502 225 Z" />
  <path data-name="Italija" d="M485 240 L505 238 L485 210 L475 205 L460 220 L465 235 Z" />
  <path data-name="San Marino" d="M486 234 L487 232 L489 233 L488 235 Z" />
  <path data-name="Vatikan" d="M484 240 L485 238 L487 239 L486 241 Z" />
  <path data-name="Švajcarska" d="M490 210 L495 205 L500 207 L500 215 L492 215 Z" />
  <path data-name="Lihtenštajn" d="M497 212 L498 210 L499 211 L498 213 Z" />
  <path data-name="Francuska" d="M460 220 L475 205 L490 210 L492 215 L485 240 L450 225 Z" />
  <path data-name="Monako" d="M480 223 L481 221 L483 222 L482 224 Z" />
  <path data-name="Španija" d="M450 225 L465 235 L460 250 L425 245 L430 230 Z" />
  <path data-name="Andora" d="M455 230 L456 228 L458 229 L457 231 Z" />
  <path data-name="Portugal" d="M425 245 L430 230 L420 235 L415 240 Z" />
  <path data-name="Gibraltar" d="M430 250 L431 249 L432 250 L431 251 Z" />
  <path data-name="Nemačka" d="M500 207 L505 215 L515 210 L525 220 L515 195 L505 190 Z" />
  <path data-name="Belgija" d="M485 200 L490 195 L495 197 L490 205 Z" />
  <path data-name="Luksemburg" d="M492 201 L493 199 L495 200 L494 202 Z" />
  <path data-name="Holandija" d="M490 190 L495 185 L500 186 L497 193 L492 192 Z" />
  <path data-name="Češka" d="M515 195 L515 210 L505 215 L500 207 L505 200 Z" />
  <path data-name="Slovačka" d="M525 220 L532 220 L530 210 L520 207 L515 210 Z" />
  <path data-name="Poljska" d="M515 195 L520 207 L530 210 L535 200 L525 185 Z" />
  <path data-name="Danska" d="M495 175 L500 170 L505 171 L500 180 Z" />
  <path data-name="Švedska" d="M505 155 L510 145 L515 150 L515 170 L505 171 Z" />
  <path data-name="Norveška" d="M490 150 L500 135 L510 145 L505 155 L495 160 Z" />
  <path data-name="Finska" d="M525 130 L535 135 L540 145 L530 155 L520 150 Z" />
  <path data-name="Rusija" d="M540 145 L570 115 L690 115 L715 160 L715 210 L650 225 L600 210 L580 215 L560 228 L555 223 L545 227 L538 232 L535 200 L530 185 L520 150 Z" />
  <path data-name="Estonija" d="M535 155 L540 150 L545 152 L540 157 Z" />
  <path data-name="Letonija" d="M535 160 L540 157 L545 159 L540 163 Z" />
  <path data-name="Litvanija" d="M532 165 L540 163 L543 167 L535 170 Z" />
  <path data-name="Belorusija" d="M535 170 L543 167 L555 175 L550 185 L535 185 Z" />
  <path data-name="Ukrajina" d="M550 185 L555 175 L580 185 L580 215 L560 228 L550 233 L545 227 L538 232 L532 220 L530 210 L535 200 Z" />
  <path data-name="Moldavija" d="M555 223 L560 228 L558 233 L553 230 Z" />
  <path data-name="Velika Britanija" d="M470 180 L480 165 L490 170 L485 185 L475 190 Z" />
  <path data-name="Irska" d="M465 175 L470 170 L475 175 L470 180 Z" />
  <path data-name="Island" d="M450 135 L460 130 L470 135 L460 140 Z" />
  
  <!-- Asia -->
  <path data-name="Turska" d="M560 236 L580 215 L600 220 L610 230 L590 245 L575 240 Z" />
  <path data-name="Gruzija" d="M600 220 L610 215 L615 217 L610 222 Z" />
  <path data-name="Jermenija" d="M610 222 L615 217 L618 219 L615 223 Z" />
  <path data-name="Azerbejdžan" d="M615 217 L625 212 L630 215 L618 219 Z" />
  <path data-name="Iran" d="M618 219 L630 215 L650 240 L625 250 L610 230 Z" />
  <path data-name="Irak" d="M610 230 L625 250 L605 255 L590 245 Z" />
  <path data-name="Sirija" d="M590 245 L610 230 L605 255 L585 250 Z" />
  <path data-name="Liban" d="M585 250 L588 245 L590 245 L587 250 Z" />
  <path data-name="Izrael" d="M587 250 L590 248 L592 251 L589 253 Z" />
  <path data-name="Palestina" d="M589 251 L591 249 L593 252 L591 254 Z" />
  <path data-name="Jordan" d="M592 251 L605 255 L600 260 L589 253 Z" />
  <path data-name="Saudijska Arabija" d="M600 260 L625 250 L640 270 L615 290 L590 270 Z" />
  <path data-name="Kuvajt" d="M625 250 L628 248 L630 250 L627 252 Z" />
  <path data-name="Bahrein" d="M630 260 L631 259 L632 260 L631 261 Z" />
  <path data-name="Katar" d="M635 265 L636 263 L638 264 L637 266 Z" />
  <path data-name="Ujedinjeni Arapski Emirati" d="M640 270 L645 268 L648 270 L643 272 Z" />
  <path data-name="Oman" d="M645 270 L650 265 L655 270 L650 275 Z" />
  <path data-name="Jemen" d="M625 280 L640 270 L650 275 L635 285 Z" />
  <path data-name="Kazahstan" d="M600 210 L650 225 L660 200 L625 180 Z" />
  <path data-name="Uzbekistan" d="M650 225 L670 220 L675 205 L660 200 Z" />
  <path data-name="Turkmenistan" d="M650 225 L660 200 L675 205 L665 230 L650 240 L630 215 Z" />
  <path data-name="Kirgistan" d="M660 200 L675 205 L690 195 L670 190 Z" />
  <path data-name="Tadžikistan" d="M675 205 L690 195 L695 200 L680 210 Z" />
  <path data-name="Avganistan" d="M665 230 L680 210 L695 215 L690 235 L675 240 Z" />
  <path data-name="Pakistan" d="M675 240 L690 235 L710 255 L685 260 L665 245 Z" />
  <path data-name="Indija" d="M710 255 L740 230 L745 260 L730 280 L685 270 L685 260 Z" />
  <path data-name="Nepal" d="M710 240 L720 235 L725 238 L715 243 Z" />
  <path data-name="Butan" d="M730 242 L735 238 L740 241 L735 245 Z" />
  <path data-name="Bangladeš" d="M735 250 L740 245 L745 248 L740 253 Z" />
  <path data-name="Mjanmar" d="M745 248 L755 240 L760 250 L750 260 Z" />
  <path data-name="Kina" d="M715 210 L715 160 L750 150 L790 170 L795 220 L780 235 L765 235 L755 240 L745 248 L740 241 L735 238 L725 238 L715 243 L710 240 L710 225 L695 215 L690 195 L670 190 Z" />
  <path data-name="Mongolija" d="M715 160 L750 150 L770 145 L780 155 L760 170 Z" />
  <path data-name="Severna Koreja" d="M795 220 L800 215 L805 218 L800 223 Z" />
  <path data-name="Južna Koreja" d="M800 223 L805 218 L808 222 L803 227 Z" />
  <path data-name="Japan" d="M815 210 L825 200 L830 205 L820 215 Z" />
  <path data-name="Tajland" d="M755 275 L760 270 L767 273 L762 278 Z" />
  <path data-name="Laos" d="M760 270 L765 265 L772 268 L767 273 Z" />
  <path data-name="Vijetnam" d="M765 265 L770 260 L777 263 L772 268 Z" />
  <path data-name="Kambodža" d="M760 275 L767 273 L772 275 L765 278 Z" />
  <path data-name="Malezija" d="M760 283 L765 280 L770 282 L765 285 Z" />
  <path data-name="Singapur" d="M765 287 L766 286 L767 287 L766 288 Z" />
  <path data-name="Brunej" d="M775 280 L776 279 L777 280 L776 281 Z" />
  <path data-name="Indonezija" d="M770 290 L785 285 L795 290 L780 295 Z" />
  <path data-name="Istočni Timor" d="M790 293 L792 292 L794 293 L792 294 Z" />
  <path data-name="Papua Nova Gvineja" d="M810 290 L820 285 L825 290 L815 295 Z" />
  <path data-name="Filipini" d="M800 250 L805 245 L810 250 L805 255 Z" />
  
  <!-- Africa -->
  <path data-name="Egipat" d="M558 265 L575 240 L590 245 L589 270 L565 280 Z" />
  <path data-name="Libija" d="M525 280 L565 280 L570 305 L530 305 Z" />
  <path data-name="Tunis" d="M490 265 L500 260 L505 265 L495 270 Z" />
  <path data-name="Alžir" d="M470 285 L495 270 L525 280 L530 305 L480 315 Z" />
  <path data-name="Maroko" d="M450 280 L470 285 L480 295 L460 295 Z" />
  <path data-name="Zapadna Sahara" d="M430 290 L450 280 L460 295 L440 300 Z" />
  <path data-name="Mauritanija" d="M430 300 L440 300 L460 295 L455 310 Z" />
  <path data-name="Mali" d="M460 295 L480 295 L485 315 L465 320 Z" />
  <path data-name="Niger" d="M480 315 L530 305 L535 320 L495 330 Z" />
  <path data-name="Nigerija" d="M485 325 L495 330 L500 345 L490 340 Z" />
  <path data-name="Čad" d="M530 305 L570 305 L565 325 L535 320 Z" />
  <path data-name="Sudan" d="M570 305 L590 290 L605 300 L585 330 L565 325 Z" />
  <path data-name="Južni Sudan" d="M565 325 L585 330 L583 340 L563 335 Z" />
  <path data-name="Eritreja" d="M590 290 L595 285 L600 288 L595 293 Z" />
  <path data-name="Džibuti" d="M595 293 L600 288 L603 290 L598 295 Z" />
  <path data-name="Etiopija" d="M585 330 L605 300 L615 305 L600 335 Z" />
  <path data-name="Somalija" d="M615 305 L625 300 L630 310 L620 315 Z" />
  <path data-name="Kenija" d="M585 340 L600 335 L605 345 L590 350 Z" />
  <path data-name="Uganda" d="M570 335 L583 340 L585 350 L572 345 Z" />
  <path data-name="Ruanda" d="M570 345 L572 343 L574 345 L572 347 Z" />
  <path data-name="Burundi" d="M570 348 L572 346 L574 348 L572 350 Z" />
  <path data-name="Tanzanija" d="M585 350 L600 345 L605 360 L590 365 Z" />
  <path data-name="Demokratska Republika Kongo" d="M550 360 L590 365 L585 380 L545 375 Z" />
  <path data-name="Republika Kongo" d="M535 350 L550 345 L555 355 L540 360 Z" />
  <path data-name="Gabon" d="M520 355 L535 350 L540 360 L525 365 Z" />
  <path data-name="Ekvatorijalna Gvineja" d="M520 355 L522 353 L524 355 L522 357 Z" />
  <path data-name="Centralnoafrička Republika" d="M550 345 L570 335 L572 345 L552 355 Z" />
  <path data-name="Kamerun" d="M515 340 L530 335 L535 350 L520 355 Z" />
  <path data-name="Benin" d="M490 340 L492 335 L497 338 L495 343 Z" />
  <path data-name="Togo" d="M490 338 L492 335 L495 337 L493 340 Z" />
  <path data-name="Gana" d="M485 335 L490 333 L493 335 L488 337 Z" />
  <path data-name="Obala Slonovače" d="M475 335 L485 335 L488 342 L478 342 Z" />
  <path data-name="Burkina Faso" d="M475 335 L485 335 L490 333 L485 328 Z" />
  <path data-name="Liberija" d="M465 340 L470 338 L475 340 L470 342 Z" />
  <path data-name="Sijera Leone" d="M460 338 L465 336 L470 338 L465 340 Z" />
  <path data-name="Gvineja" d="M455 335 L465 336 L470 340 L460 339 Z" />
  <path data-name="Gvineja Bisao" d="M455 335 L457 333 L459 335 L457 337 Z" />
  <path data-name="Senegal" d="M450 335 L455 333 L460 335 L455 337 Z" />
  <path data-name="Gambija" d="M450 335 L452 334 L454 335 L452 336 Z" />
  <path data-name="Zambija" d="M570 375 L585 380 L590 395 L575 390 Z" />
  <path data-name="Malavi" d="M588 385 L590 380 L593 383 L591 388 Z" />
  <path data-name="Mozambik" d="M590 395 L605 390 L610 405 L595 410 Z" />
  <path data-name="Zimbabve" d="M575 390 L590 395 L595 400 L580 395 Z" />
  <path data-name="Bocvana" d="M565 400 L580 395 L585 405 L570 410 Z" />
  <path data-name="Namibija" d="M550 400 L565 400 L570 410 L555 410 Z" />
  <path data-name="Angola" d="M550 380 L570 375 L575 390 L555 395 Z" />
  <path data-name="Južnoafrička Republika" d="M560 410 L585 405 L595 415 L570 420 Z" />
  <path data-name="Svazilend" d="M580 412 L582 410 L584 412 L582 414 Z" />
  <path data-name="Lesoto" d="M575 415 L578 413 L580 415 L577 417 Z" />
  
  <!-- Australia and Oceania -->
  <path data-name="Australija" d="M775 355 L810 340 L830 365 L810 390 L775 380 Z" />
  <path data-name="Novi Zeland" d="M840 395 L850 390 L855 395 L845 400 Z" />
  <path data-name="Fidži" d="M870 340 L872 338 L874 340 L872 342 Z" />
  <path data-name="Samoa" d="M880 335 L882 333 L884 335 L882 337 Z" />
  <path data-name="Tonga" d="M885 345 L887 343 L889 345 L887 347 Z" />
  <path data-name="Vanuatu" d="M865 345 L867 343 L869 345 L867 347 Z" />
  <path data-name="Solomonski Ostrva" d="M855 325 L857 323 L859 325 L857 327 Z" />
</svg>
